<svg width="254" height="70" viewBox="0 0 254 70" fill="none" xmlns="http://www.w3.org/2000/svg">
<path d="M120.557 69.3349V60.9404H122.223L124.754 67.9918L127.284 60.9404H128.951V69.3349H127.824L127.896 62.3195L125.365 69.1428H124.142L121.612 62.3195L121.684 69.3349H120.557Z" fill="white"/>
<path d="M136.84 69.5145L135.917 67.0681H132.188L131.276 69.5145H130.029L133.363 61.1201H134.754L138.088 69.5145H136.84ZM132.535 66.1566H135.581L134.058 62.1036L132.535 66.1566Z" fill="white"/>
<path d="M139.166 69.5145V61.1201H141.696C143.531 61.1201 144.85 62.0437 144.85 63.6027C144.85 65.1617 143.495 66.157 141.984 66.157H141.84L145.114 69.5148H143.471L140.317 66.0852V69.5148L139.166 69.5145ZM140.317 65.2452H141.66C142.704 65.2452 143.651 64.7415 143.651 63.6502C143.651 62.511 142.704 62.0551 141.66 62.0551H140.317V65.2452Z" fill="white"/>
<path d="M146.195 69.5145V61.1201H147.287V69.5145H146.195Z" fill="white"/>
<path d="M149.203 69.5145V61.1201H150.462L155.031 67.8834V61.1201H156.159V69.5145H154.899L150.331 62.7512V69.5145H149.203Z" fill="white"/>
<path d="M164.049 69.5145L163.126 67.0681H159.397L158.485 69.5145H157.238L160.572 61.1201H161.963L165.297 69.5145H164.049ZM159.745 66.1566H162.79L161.267 62.1036L159.745 66.1566Z" fill="white"/>
<path d="M165.693 67.4999L166.797 67.2122C167 68.1714 167.732 68.819 168.751 68.819C169.686 68.819 170.478 68.3635 170.478 67.4524C170.478 66.7927 170.058 66.2532 169.171 66.013L168.452 65.8213C167 65.4375 165.993 64.5861 165.993 63.3269C165.993 62.0557 167.072 60.9404 168.811 60.9404C170.37 60.9404 171.365 61.8636 171.677 63.2306L170.622 63.5305C170.406 62.6787 169.866 61.8155 168.787 61.8155C167.828 61.8155 167.132 62.3913 167.132 63.2306C167.132 64.0581 167.732 64.4776 168.547 64.6939L169.279 64.8856C170.886 65.3051 171.641 66.1205 171.641 67.356C171.641 68.9272 170.263 69.6947 168.715 69.6947C167.012 69.6944 166.005 68.9029 165.693 67.4999Z" fill="white"/>
<path d="M120.557 24.8614V1.39746H129.54C136.579 1.39746 141.674 5.85539 141.674 13.129C141.674 21.8108 134.97 24.8611 129.54 24.8611L120.557 24.8614ZM125.585 20.8056H128.669C132.389 20.8056 136.512 18.928 136.512 13.1628C136.512 7.43054 132.389 5.45297 128.669 5.45297H125.585V20.8056Z" fill="white"/>
<path d="M145.16 18.1572V8.10156H149.987V17.6547C149.987 20.0344 150.758 21.3085 152.635 21.3085C154.679 21.3085 155.786 19.5991 155.786 17.2188V8.10156H160.613V24.8612H155.786L155.853 22.0459C155.049 23.6546 153.238 25.364 150.758 25.364C146.736 25.364 145.16 22.7497 145.16 18.1572Z" fill="white"/>
<path d="M169.428 22.3136L169.495 24.8614H164.668V1.39746H169.495V10.6486C169.93 9.57592 171.741 7.59835 174.623 7.59835C179.249 7.59835 182.366 11.7213 182.366 16.5484C182.366 21.3748 179.249 25.3977 174.623 25.3977C171.741 25.398 169.93 23.3527 169.428 22.3136ZM177.405 16.5487C177.405 13.7666 175.495 11.8223 173.383 11.8223C171.271 11.8223 169.361 13.7666 169.361 16.5487C169.361 19.2633 171.271 21.1744 173.383 21.1744C175.495 21.1741 177.405 19.2633 177.405 16.5487Z" fill="white"/>
<path d="M185.047 16.4143C185.047 11.5872 188.131 7.56494 192.756 7.56494C195.639 7.56494 197.449 9.60932 197.985 10.6488L197.918 8.1016H202.745V18.5929L204.991 24.8612H199.862L198.622 21.3082C198.186 23.3193 195.672 25.3637 192.756 25.3637C188.131 25.3637 185.047 21.2408 185.047 16.4143ZM198.052 16.4143C198.052 13.699 196.142 11.7886 193.997 11.7886C191.885 11.7886 190.008 13.699 190.008 16.4143C190.008 19.1964 191.885 21.1407 193.997 21.1407C196.142 21.1407 198.052 19.1964 198.052 16.4143Z" fill="white"/>
<path d="M207.102 3.57612C207.102 1.93353 208.308 0.86084 210.118 0.86084C211.928 0.86084 213.101 1.93353 213.101 3.57612C213.101 5.18546 211.928 6.32464 210.118 6.32464C208.308 6.32495 207.102 5.18546 207.102 3.57612ZM207.705 24.8614V8.10178H212.532V24.8614H207.705Z" fill="white"/>
<path d="M120.557 54.6329V31.1689H125.585V40.5211H135.909V31.1689H140.937V54.6329H135.909V44.6108H125.585V54.6329H120.557Z" fill="white"/>
<path d="M144.422 46.1858C144.422 41.3587 147.506 37.3364 152.131 37.3364C155.014 37.3364 156.824 39.3808 157.36 40.4202L157.293 37.8731H162.12V48.3644L164.366 54.6327H159.237L157.997 51.0797C157.561 53.0908 155.047 55.1352 152.131 55.1352C147.506 55.1352 144.422 51.0122 144.422 46.1858ZM157.428 46.1858C157.428 43.4705 155.517 41.56 153.372 41.56C151.26 41.56 149.383 43.4705 149.383 46.1858C149.383 48.9679 151.26 50.9122 153.372 50.9122C155.517 50.9122 157.428 48.9679 157.428 46.1858Z" fill="white"/>
<path d="M167.082 54.6331V37.8735H171.909L171.574 42.1639H171.708C172.345 39.3479 174.591 37.605 176.903 37.605C177.775 37.605 178.312 37.6718 178.68 37.7392V42.1971C178.345 42.1639 177.239 42.0965 176.602 42.0965C174.49 42.0965 171.909 43.0688 171.909 48.3648V54.6331H167.082Z" fill="white"/>
<path d="M186.154 52.0851L186.222 54.6329H181.395V31.1689H186.222V40.4201C186.658 39.3474 188.468 37.3698 191.35 37.3698C195.976 37.3698 199.093 41.4928 199.093 46.3199C199.093 51.1463 195.976 55.1692 191.35 55.1692C188.468 55.1695 186.658 53.1242 186.154 52.0851ZM194.132 46.3202C194.132 43.5381 192.221 41.5938 190.11 41.5938C187.998 41.5938 186.087 43.5381 186.087 46.3202C186.087 49.0348 187.998 50.9459 190.11 50.9459C192.221 50.9459 194.132 49.0348 194.132 46.3202Z" fill="white"/>
<path d="M201.773 46.2526C201.773 41.3926 205.159 37.3364 210.489 37.3364C215.818 37.3364 219.237 41.3926 219.237 46.2526C219.237 51.0797 215.818 55.1694 210.489 55.1694C205.159 55.1694 201.773 51.0797 201.773 46.2526ZM214.377 46.2526C214.377 43.1688 212.533 41.6604 210.489 41.6604C208.477 41.6604 206.633 43.2023 206.633 46.2526C206.633 49.3364 208.477 50.8115 210.489 50.8115C212.533 50.8115 214.377 49.3364 214.377 46.2526Z" fill="white"/>
<path d="M222.422 47.9285V37.8729H227.249V47.4257C227.249 49.8054 228.02 51.0795 229.897 51.0795C231.941 51.0795 233.047 49.3701 233.047 46.9898V37.8726H237.875V54.6322H233.047L233.115 51.8169C232.311 53.4256 230.5 55.135 228.02 55.135C223.997 55.1353 222.422 52.521 222.422 47.9285Z" fill="white"/>
<path d="M241.93 54.6331V37.8735H246.757L246.422 42.1639H246.556C247.193 39.3479 249.438 37.605 251.751 37.605C252.623 37.605 253.159 37.6718 253.528 37.7392V42.1971C253.193 42.1639 252.087 42.0965 251.449 42.0965C249.338 42.0965 246.757 43.0688 246.757 48.3648V54.6331H241.93Z" fill="white"/>
<path d="M52.7381 53.3045C23.6534 53.3045 -0.0078125 30.0183 -0.0078125 1.39795H15.1251C15.1251 21.8091 32 38.4131 52.7381 38.4131C73.4799 38.4131 90.3511 21.8091 90.3511 1.39795H105.484C105.484 30.0183 81.8227 53.3045 52.7381 53.3045Z" fill="white"/>
</svg>
