<svg width="36" height="36" viewBox="0 0 36 36" fill="none" xmlns="http://www.w3.org/2000/svg">
<mask id="mask0_763_3894" style="mask-type:luminance" maskUnits="userSpaceOnUse" x="4" y="2" width="29" height="32">
<path d="M4.32146 2.57141H32.1375V33.7887H4.32146V2.57141Z" fill="white"/>
</mask>
<g mask="url(#mask0_763_3894)">
<mask id="mask1_763_3894" style="mask-type:luminance" maskUnits="userSpaceOnUse" x="4" y="2" width="29" height="32">
<path d="M14.2271 12.933C13.1713 12.933 12.3155 12.1857 12.3155 11.2637C12.3155 10.3424 13.1713 9.59509 14.2271 9.59509C15.2829 9.59509 16.1386 10.3424 16.1386 11.2637C16.1386 12.1857 15.2829 12.933 14.2271 12.933ZM32.0802 19.8907H28.1152C28.0206 24.0056 24.639 27.416 20.1693 28.2024V12.967H24.1451V16.426H28.1227V6.03541H24.1451V9.49434H20.1693V2.57141H16.1918V6.37753C15.5526 6.15718 14.8845 6.03541 14.2271 6.03541C10.921 6.03541 8.24004 8.37591 8.24004 11.2637C8.24004 14.1514 10.9202 16.4919 14.2271 16.4919C14.9152 16.4919 15.5767 16.3904 16.1918 16.2034V28.1944C11.7428 27.3949 8.38115 23.9925 8.28652 19.89H4.32146C4.42106 25.909 9.54319 30.8662 16.1918 31.7084V33.7445H20.1693V31.7135C26.8378 30.8865 31.9815 25.9213 32.0811 19.89" fill="white"/>
</mask>
<g mask="url(#mask1_763_3894)">
<path d="M4.32146 2.57141H32.0811V33.7387H4.32146V2.57141Z" fill="white"/>
</g>
</g>
</svg>
