<svg xmlns="http://www.w3.org/2000/svg" width="130" height="6" viewBox="0 0 130 6" fill="none">
    <path d="M130 3.00001L125 0.11326L125 5.88676L130 3.00001ZM-4.37114e-08 3.5L4.0625 3.5L4.0625 2.5L4.37114e-08 2.5L-4.37114e-08 3.5ZM12.1875 3.5L20.3125 3.5L20.3125 2.5L12.1875 2.5L12.1875 3.5ZM28.4375 3.5L36.5625 3.5L36.5625 2.5L28.4375 2.5L28.4375 3.5ZM44.6875 3.5L52.8125 3.5L52.8125 2.5L44.6875 2.5L44.6875 3.5ZM60.9375 3.50001L69.0625 3.50001L69.0625 2.50001L60.9375 2.50001L60.9375 3.50001ZM77.1875 3.50001L85.3125 3.50001L85.3125 2.50001L77.1875 2.50001L77.1875 3.50001ZM93.4375 3.50001L101.562 3.50001L101.563 2.50001L93.4375 2.50001L93.4375 3.50001ZM109.688 3.50001L117.813 3.50001L117.813 2.50001L109.688 2.50001L109.688 3.50001Z" fill="#BDD2FA"/>
</svg>