<svg width="262" height="232" viewBox="0 0 262 232" fill="none" xmlns="http://www.w3.org/2000/svg">
<g opacity="0.08">
<path d="M228.428 215.616C218.535 214.051 217.355 208.2 215.856 200.784C214.17 192.504 212.09 182.204 196.952 173.989C189.363 169.882 182.094 167.307 174.712 166.117C168.117 165.058 161.559 165.123 154.702 166.329C141.962 168.578 129.933 174.576 118.28 180.362C107.375 185.789 96.0963 191.412 83.9555 194.183C77.4354 195.683 71.2151 196.237 64.9385 195.911C57.8939 195.536 50.9616 194.053 43.767 191.363C31.1952 186.669 18.6984 185.04 6.6325 186.506C4.40293 186.784 2.1921 187.158 0 187.647V188.153C2.22957 187.664 4.45914 187.272 6.72618 186.995C18.6984 185.529 31.0828 187.158 43.5609 191.803C52.423 195.112 60.6293 196.481 68.3672 196.481C87.0469 196.481 102.991 188.544 118.561 180.802C130.701 174.755 142.149 169.051 154.815 166.818C161.597 165.612 168.08 165.546 174.6 166.606C181.925 167.779 189.139 170.338 196.652 174.413C203.303 178.015 211.584 182.497 215.313 200.865C216.081 204.696 216.755 208.004 218.535 210.661C220.503 213.611 223.631 215.339 228.334 216.088C242.255 218.305 250.536 221.809 254.377 227.122C255.295 228.377 255.97 229.747 256.419 231.197H257C256.532 229.649 255.838 228.214 254.845 226.862C250.911 221.434 242.517 217.865 228.428 215.616Z" fill="#0040B4" fill-opacity="0.5"/>
<path d="M217.555 221.021C205.77 219.498 204.665 216.435 202.267 209.76C200.169 203.942 197.002 195.128 184.618 182.343C167.963 165.135 150.295 175.894 129.836 188.355C109.096 200.993 85.5831 215.301 56.8806 204.996C45.8829 201.042 34.7916 199.098 23.8876 199.179C15.7752 199.243 7.7377 200.443 0 202.743V203.262C7.7377 200.945 15.7564 199.746 23.8876 199.681C34.7166 199.584 45.733 201.544 56.6557 205.466C69.5831 210.116 82.6417 210.197 96.5433 205.741C108.703 201.836 119.607 195.193 130.155 188.776C140.272 182.619 149.827 176.802 158.763 174.728C168.637 172.427 176.712 174.954 184.187 182.684C196.496 195.403 199.644 204.153 201.724 209.938C204.122 216.614 205.34 219.968 217.48 221.539C224.581 222.463 229.021 224.732 230.689 228.28C231.101 229.171 231.344 230.144 231.438 231.197H232C231.925 230.079 231.663 229.042 231.213 228.102C229.452 224.343 224.862 221.977 217.555 221.021Z" fill="#0040B4" fill-opacity="0.5"/>
<path d="M159.441 199.668C154.243 196.65 147.269 196.748 138.724 200.011C131.937 202.588 124.14 207.156 115.539 213.551C106.752 220.108 98.8987 227.286 94 232H94.7479C99.6466 227.286 107.313 220.304 115.895 213.909C124.458 207.531 132.199 202.996 138.93 200.435C147.287 197.254 154.075 197.123 159.104 200.06C170.79 206.862 176.998 218.347 182.476 228.477C183.13 229.668 183.747 230.842 184.383 231.984H185C184.327 230.777 183.654 229.537 182.981 228.265C177.502 218.086 171.257 206.536 159.441 199.668Z" fill="#0040B4" fill-opacity="0.5"/>
<path d="M144.532 216.237C142.137 214.745 139.041 214.777 135.337 216.335C132.425 217.568 129.126 219.742 125.532 222.809C122.105 225.745 119.027 228.942 117 231.197H117.719C123.468 224.885 136.645 211.921 144.201 216.627C149.084 219.677 151.941 225.729 154.41 231.197H155C152.494 225.632 149.619 219.401 144.532 216.237Z" fill="#0040B4" fill-opacity="0.5"/>
<path d="M51.7985 216.033C47.0048 214.979 42.0432 213.892 37.5852 212.598C26.5241 209.354 13.7097 212.086 4.90566 214.947C3.17096 215.506 1.52952 216.097 0 216.688V217.216C1.58548 216.608 3.30153 215.985 5.11084 215.394C13.8216 212.566 26.5055 209.865 37.3986 213.061C41.8566 214.371 46.8369 215.458 51.6493 216.513C62.4679 218.877 72.6895 221.114 73.3983 225.173C73.6968 226.883 72.3165 228.88 69.2201 231.197H70.0408C72.9693 228.88 74.2564 226.867 73.9579 225.093C73.1932 220.715 63.2886 218.558 51.7985 216.033Z" fill="#0040B4" fill-opacity="0.5"/>
<path d="M45.3179 222.764C41.5761 222.202 37.0216 222.235 32.8262 222.864C25.059 224.021 9.86487 227.725 0 230.221V230.734C9.86487 228.237 25.1535 224.517 32.9396 223.343C37.0783 222.731 41.5572 222.682 45.2423 223.244C50.5716 224.054 52.4426 225.757 53.0851 227.063C53.6709 228.237 53.5198 229.626 52.6504 231.197H53.293C54.1245 229.576 54.219 228.121 53.5953 226.865C52.3292 224.319 48.3983 223.227 45.3179 222.764Z" fill="#0040B4" fill-opacity="0.5"/>
<path d="M23.9684 132.495C32.4088 137.475 37.9174 144.617 42.7539 150.923C48.2439 158.065 53.0056 164.24 60.4376 165.239C61.1286 165.338 61.8382 165.37 62.5477 165.37C68.2805 165.37 75.0963 162.471 83.7421 156.361C90.2218 151.775 95.6185 147.614 100.38 143.929C110.427 136.148 117.69 130.529 125.72 128.711C133.918 126.844 142.918 128.81 156.774 135.476C168.09 140.931 181.591 144.682 193.785 145.763C199.462 146.271 204.615 146.173 208.705 145.452C213.019 144.698 216.044 143.339 217.668 141.39C219.89 138.72 220.432 133.756 210.33 125.255C198.248 115.083 184.504 113.854 169.958 112.56C160.322 111.708 150.35 110.808 140.285 107.253C128.895 103.24 119.016 96.2618 110.072 85.9586C103.461 78.3417 95.7492 74.738 87.7383 75.5407C82.2856 76.0812 76.9263 78.6038 71.8098 83.0101C66.6746 87.4656 62.0436 93.6082 58.0848 101.274C55.1344 106.958 51.8852 109.874 48.0945 110.169C39.8968 110.808 30.4107 98.7188 21.2607 87.0233C16.6857 81.1755 11.9613 75.1476 7.46102 70.8231C5.12684 68.579 2.99806 66.9246 1 65.8271V66.4332C7.29296 70.0697 14.1274 78.784 20.7939 87.3018C25.3876 93.1659 30.1493 99.243 34.7243 103.666C39.6167 108.383 43.7996 110.693 47.4783 110.693C47.7023 110.693 47.9264 110.676 48.1505 110.66C52.1466 110.349 55.5639 107.351 58.589 101.487C62.5291 93.8703 67.1041 87.7768 72.2019 83.3705C77.2251 79.0297 82.4723 76.5563 87.7943 76.0321C95.5811 75.2622 103.144 78.8004 109.624 86.2698C118.624 96.6549 128.596 103.666 140.061 107.712C150.201 111.299 160.21 112.183 169.883 113.052C184.336 114.346 197.986 115.558 209.937 125.615C219.76 133.887 219.312 138.605 217.22 141.111C214.158 144.764 205.418 146.32 193.841 145.288C181.722 144.207 168.296 140.472 157.035 135.05C143.049 128.318 133.936 126.352 125.571 128.253C117.41 130.104 110.109 135.755 100.007 143.585C95.245 147.27 89.867 151.431 83.3873 156.001C73.7892 162.782 66.5252 165.567 60.5123 164.764C53.3231 163.814 48.636 157.721 43.202 150.661C38.3283 144.322 32.8009 137.147 24.2671 132.102C17.1899 127.925 10.4488 125.828 4.15582 125.828C3.09143 125.828 2.04571 125.894 1 126.008V126.5C8.07724 125.664 15.7894 127.679 23.9684 132.495Z" fill="#0040B4" fill-opacity="0.5"/>
<path d="M10.5254 180.411C19.2121 180.527 28.9307 182.06 37.5049 183.395C49.7938 185.323 59.4749 186.84 60.6757 183.345C62.4768 178.104 56.6231 173.768 46.9045 166.598C39.9439 161.455 31.2572 155.06 21.9701 145.862C14.9907 138.955 8.03006 135.823 1.31333 136.582C0.900567 136.631 0.469045 136.697 0 136.779V137.29C0.450283 137.208 0.919329 137.126 1.38837 137.076C7.91748 136.351 14.6905 139.417 21.5573 146.192C30.8819 155.422 39.5687 161.834 46.5481 166.994C56.0791 174.032 61.8389 178.285 60.1504 183.213C59.0997 186.279 49.1372 184.713 37.6174 182.917C25.1784 180.972 10.5817 178.68 0.0187618 180.658V181.169C2.98313 180.609 6.49159 180.345 10.5254 180.411Z" fill="#0040B4" fill-opacity="0.5"/>
<path d="M35.6761 178.214C40.6048 178.214 43.3724 177.429 43.9032 175.844C45.0785 172.388 35.278 166.161 29.3067 162.756C20.8711 157.931 10.8242 153.391 5.42155 151.938C3.62069 151.454 1.80087 151.12 0.0189565 150.92V151.421C1.744 151.621 3.50695 151.955 5.25094 152.422C10.6156 153.858 20.6057 158.365 28.9845 163.173C38.747 168.765 44.1117 173.44 43.3345 175.693C42.5763 177.897 35.8277 178.298 24.3212 176.828C14.9946 175.643 5.2699 173.59 0 172.288V172.805C5.30781 174.124 14.9756 176.144 24.2264 177.329C28.8707 177.914 32.662 178.214 35.6761 178.214Z" fill="#0040B4" fill-opacity="0.5"/>
<path d="M11.1797 168.582C13.442 168.582 14.7051 168.196 14.9502 167.426C15.4781 165.885 11.7075 163.322 8.44602 161.446C5.63696 159.822 2.432 158.281 0 157.343V157.895C2.37544 158.833 5.44844 160.324 8.14437 161.882C12.3297 164.294 14.724 166.371 14.4035 167.292C13.8945 168.783 6.33451 167.945 0 166.689V167.191C1.90412 167.56 4.03448 167.928 6.10828 168.196C8.16323 168.448 9.84112 168.582 11.1797 168.582Z" fill="#0040B4" fill-opacity="0.5"/>
<path d="M89.1807 84.4826C91.8437 84.0069 94.2833 84.4171 96.3877 85.7131C104.377 90.6022 109.555 95.3604 114.137 99.5441C121.177 105.976 126.727 111.061 138.907 113.998C146.599 115.852 150.23 117.559 149.988 119.233C149.802 120.529 147.195 121.562 142.223 122.317C137.399 123.038 130.433 123.482 122.09 123.58C115.795 123.662 109.257 125.812 102.087 130.193C95.8293 134.032 89.9062 139.035 84.6729 143.465C76.9439 150.011 70.1837 155.737 64.6524 155.737C64.1123 155.737 63.5907 155.688 63.0879 155.573C58.525 154.573 54.8934 151.734 52.584 147.354C50.256 142.891 49.4734 137.132 50.3487 130.685C51.1495 124.877 53.4776 119.118 57.128 114.031C70.1091 95.9019 80.8929 85.9592 89.1807 84.4826ZM91.2852 84.7785C90.652 84.7785 89.981 84.8443 89.3106 84.9591C81.1904 86.4196 70.5188 96.2797 57.6123 114.294C54.0178 119.315 51.708 125.008 50.9258 130.75C50.0691 137.1 50.8333 142.76 53.1241 147.141C55.3403 151.39 58.8421 154.146 63.2373 155.098C63.7028 155.196 64.1869 155.245 64.6709 155.245C69.9602 155.245 76.6464 149.585 84.2823 143.121C89.5156 138.675 95.457 133.655 101.771 129.799C109.034 125.369 115.683 123.17 122.09 123.088C130.415 122.99 137.343 122.546 142.129 121.824C148.293 120.889 149.355 119.758 149.448 119.167C149.709 117.297 142.074 115.246 138.777 114.458C126.448 111.472 120.842 106.353 113.765 99.8722C109.202 95.7049 104.042 90.9804 96.0899 86.1076C94.6372 85.2216 93.0358 84.7785 91.2852 84.7785Z" fill="#0040B4" fill-opacity="0.5"/>
<path d="M166.572 119.012C169.98 117.103 174.413 116.696 179.795 117.838C184.059 118.735 188.92 120.594 194.246 123.367C203.11 127.983 210.354 133.627 210.708 133.904C213.315 135.519 214.358 136.726 213.892 137.623C213.445 138.455 211.657 138.879 208.455 138.879C205.717 138.879 201.955 138.569 197.132 137.966C188.398 136.857 178.435 135.013 172.55 133.757C162.737 131.669 158.528 129.81 158.044 127.38C157.615 125.178 160.334 122.518 166.572 119.012ZM174.208 117.675C171.377 117.675 168.938 118.262 166.889 119.403C160.949 122.747 158.23 125.324 158.602 127.249C159.124 130.005 166.014 131.833 172.68 133.252C188.845 136.693 211.993 140.053 213.371 137.394C213.557 137.035 213.426 136.154 210.373 134.263L210.354 134.247C210.28 134.198 202.961 128.44 193.966 123.759C188.696 121.018 183.891 119.176 179.682 118.295C177.727 117.887 175.902 117.675 174.208 117.675Z" fill="#0040B4" fill-opacity="0.5"/>
<path d="M262 129.326C260.668 128.11 259.148 126.862 257.421 125.613C250.853 120.866 242.522 116.956 232.651 113.982C220.322 110.27 205.554 108.003 188.759 107.247C179.151 106.82 160.724 105.325 145.167 100.085C128.785 94.5814 119.703 86.4497 118.201 75.9196C116.456 63.7303 118.164 56.1736 123.587 52.116C129.517 47.6805 140.251 47.4834 156.389 51.5574C167.592 54.383 176.655 58.2599 183.936 61.3812C191.123 64.4696 196.809 66.9008 201.876 67.328C207.374 67.7879 211.671 65.833 215.8 60.9869C218.427 57.8985 220.51 54.9744 222.349 52.3952C226.046 47.1877 228.729 43.4258 233.101 42.0294C237.718 40.5509 243.967 41.7994 254.025 46.202C256.896 47.4505 259.542 48.8469 262 50.2925V49.7011C259.617 48.3048 257.046 46.9741 254.287 45.7585C244.079 41.2902 237.699 40.0417 232.914 41.553C228.354 43.0151 225.652 46.8263 221.88 52.116C220.06 54.6787 217.977 57.5864 215.368 60.6748C206.886 70.6463 198.348 66.983 184.199 60.9212C176.899 57.7835 167.798 53.8902 156.558 51.0646C140.213 46.9577 129.31 47.1713 123.23 51.7217C117.657 55.8943 115.893 63.5989 117.657 75.9689C119.196 86.6961 128.391 94.9592 144.979 100.545C160.611 105.801 179.114 107.296 188.74 107.74C205.479 108.479 220.172 110.746 232.445 114.442C242.24 117.399 250.516 121.276 257.027 125.975C258.941 127.355 260.593 128.734 262 130.049V129.326Z" fill="#0040B4" fill-opacity="0.5"/>
<path d="M262 118.971C258.05 116.356 253.299 113.726 247.914 111.243C232.617 104.173 214.581 99.2566 197.16 97.4151C179.515 95.5407 166.641 93.4854 156.654 90.9204C143.891 87.6649 135.842 83.6037 132.041 78.5395C129.469 75.1031 128.911 71.1405 130.345 66.734C131.426 63.4785 133.401 61.3245 136.401 60.1572C146.555 56.1781 166.026 64.5143 183.205 71.864C189.484 74.5605 195.427 77.0926 200.477 78.8354C208.992 81.7786 214.227 82.4363 217.991 81.0058C221.624 79.6247 223.711 76.4349 226.58 72.0119C228.313 69.3483 230.269 66.3394 233.027 63.0181C235.971 59.4666 239.697 57.6086 244.113 57.4935C250.15 57.3455 256.69 60.486 262 63.9388V63.3305C253.746 58.0197 247.802 56.918 244.113 57.0003C239.53 57.1154 235.654 59.0391 232.598 62.7221C229.822 66.0599 227.866 69.1017 226.114 71.7653C220.488 80.3975 217.916 84.3436 200.682 78.3751C195.651 76.6322 189.726 74.1001 183.447 71.42C166.156 64.0211 146.555 55.6356 136.177 59.7132C133.047 60.9299 130.904 63.2647 129.805 66.6189C128.314 71.157 128.892 75.2675 131.556 78.8354C135.45 83.9818 143.593 88.1088 156.505 91.3973C166.529 93.9622 179.441 96.0175 197.104 97.8919C214.451 99.7334 232.412 104.633 247.653 111.67C253.112 114.203 257.994 116.915 262 119.612V118.971Z" fill="#0040B4" fill-opacity="0.5"/>
<path d="M261.981 111.713C251.35 103.568 236.932 100.309 225.629 97.7753C214.662 95.307 206.754 93.5299 207.612 88.725C207.854 87.3263 210.055 87.425 213.916 87.7212C217.497 87.9845 221.936 88.33 226.133 87.0794C231.094 85.5985 234.507 82.2581 236.559 76.8608C237.995 73.0761 240.289 70.904 243.348 70.4432C248.944 69.5876 256.293 74.3925 262 79.1645V78.4734C261.851 78.3582 261.72 78.2265 261.571 78.1114C254.036 71.99 247.881 69.242 243.255 69.9496C239.972 70.4432 237.548 72.714 236.037 76.6962C231.523 88.5604 220.966 87.7541 213.972 87.2275C210.167 86.9313 207.407 86.7339 207.071 88.6591C206.642 91.0945 208.153 92.9704 211.883 94.5336C215.203 95.9323 219.978 97.0184 225.499 98.2525C236.895 100.82 251.424 104.094 262 112.388V111.713H261.981Z" fill="#0040B4" fill-opacity="0.5"/>
<path d="M262 106.968C258.408 104.922 254.465 102.022 251.077 98.9032C246.004 94.2254 242.987 89.8997 242.598 86.6973C242.394 84.9704 242.968 83.5956 244.338 82.6231C249.152 79.2028 257.001 84.9033 262 89.447V88.7261C260.963 87.8039 259.834 86.8482 258.649 85.9428C255.891 83.8471 253.336 82.4052 251.096 81.6674C248.245 80.7285 245.838 80.9129 243.986 82.2375C242.468 83.3105 241.82 84.8363 242.043 86.7644C242.82 93.3033 253.65 102.877 262 107.571V106.968Z" fill="#0040B4" fill-opacity="0.5"/>
<path d="M142.144 64.4344C148.047 63.2813 159.162 66.8218 175.153 74.9256C187.028 80.9314 197.317 87.3747 197.439 87.4461C199.662 88.8915 200.428 90.0777 199.774 90.9871C199.027 91.945 196.616 92.3182 193.441 92.3182C189.089 92.3181 183.261 91.6195 178.142 90.7264C165.682 88.5664 153.801 84.8966 146.366 80.9178C137.997 76.4356 135.158 71.5795 138.166 66.8699C138.969 65.6034 140.314 64.7916 142.144 64.4344ZM144.517 64.7098C143.695 64.7098 142.948 64.7752 142.257 64.9051C140.594 65.2299 139.38 65.9607 138.651 67.0975C137.157 69.436 137.176 71.8071 138.726 74.1619C140.127 76.3055 142.798 78.4335 146.646 80.4959C154.025 84.4422 165.831 88.0963 178.235 90.24C183.559 91.1657 188.585 91.7174 192.377 91.7986C197.551 91.9123 198.934 91.1489 199.289 90.6941C199.886 89.8984 198.429 88.713 197.103 87.8523C196.618 87.5438 160.004 64.7102 144.517 64.7098Z" fill="#0040B4" fill-opacity="0.5"/>
<path d="M151.686 73.1526C154.104 72.6193 159.459 74.204 167.621 77.8284C173.664 80.5115 179.075 83.3986 179.149 83.43C179.428 83.6183 180.301 84.1525 179.892 84.6702C179.65 84.9838 178.907 85.094 177.903 85.094C175.152 85.094 170.486 84.184 169.295 83.9485C163.103 82.6933 157.358 80.8885 153.936 79.1155C150.497 77.3269 149.306 75.5852 150.385 73.9378C150.645 73.5455 151.091 73.2782 151.686 73.1526ZM152.727 73.5296C152.374 73.5296 152.077 73.5606 151.798 73.6233C151.333 73.7175 151.035 73.9055 150.849 74.1722C149.938 75.5529 151.054 77.0755 154.196 78.7073C157.562 80.4647 163.252 82.2529 169.406 83.4925C175.728 84.7634 179.111 84.7949 179.428 84.4026C179.446 84.3712 179.409 84.1833 178.814 83.8226C178.294 83.5401 159.291 73.5296 152.727 73.5296Z" fill="#0040B4" fill-opacity="0.5"/>
<path d="M80.6891 99.207C85.2455 96.2748 89.3373 95.0823 92.8336 95.6786C95.7162 96.1756 98.1894 97.8488 100.198 100.665C102.169 103.415 103.118 106.596 102.988 109.876C102.858 113.139 101.649 116.27 99.5104 118.921L98.9333 119.633C91.8291 128.429 84.5019 137.524 68.5084 143.52C66.6488 144.216 65.1236 144.498 63.8776 144.498C61.3483 144.498 59.9536 143.322 59.1911 142.112C54.2257 134.276 65.4393 109.047 80.6891 99.207ZM91.0299 96.0263C88.0729 96.0263 84.725 97.2355 81.0241 99.621C74.1245 104.077 67.3361 112.31 62.8727 121.637C58.6883 130.383 57.4242 138.319 59.6745 141.864C61.1809 144.233 64.0633 144.63 68.2848 143.04C84.1297 137.093 91.42 128.065 98.4684 119.318L99.0456 118.605C101.128 116.038 102.3 113.006 102.43 109.842C102.56 106.661 101.63 103.58 99.7331 100.93C97.8176 98.2462 95.4559 96.6396 92.7409 96.1757C92.183 96.0763 91.6063 96.0263 91.0299 96.0263Z" fill="#0040B4" fill-opacity="0.5"/>
<path d="M80.5898 108.145C83.3162 106.408 85.7567 105.7 87.873 106.055C89.6082 106.341 91.1151 107.337 92.3164 109.023C94.6995 112.363 94.5467 116.613 91.8965 119.868C87.6826 125.046 83.0868 128.992 73.3242 132.636C72.1424 133.074 71.1703 133.26 70.3887 133.26C68.9014 133.26 68.0807 132.602 67.623 131.91C66.3079 129.852 67.1092 125.501 69.7021 120.559C72.4097 115.432 76.4713 110.776 80.5898 108.145ZM86.7861 106.475C85.0511 106.476 83.1062 107.184 80.9326 108.567C76.9094 111.148 72.9048 115.718 70.2353 120.778C67.7566 125.501 66.9374 129.769 68.1387 131.675C68.9396 132.939 70.6177 133.108 73.1152 132.181C82.7633 128.588 87.2818 124.691 91.4385 119.581C93.9553 116.494 94.1087 112.463 91.8398 109.309C90.7149 107.758 89.3608 106.83 87.7783 106.56C87.4542 106.51 87.1293 106.475 86.7861 106.475Z" fill="#0040B4" fill-opacity="0.5"/>
<path opacity="0.2" d="M78.0069 123.626C78.2217 123.626 78.4862 123.576 78.8002 123.443C81.2463 122.408 82.3866 121.272 83.4444 119.787C84.1385 118.818 84.1881 117.533 83.5601 116.548C83.2295 116.03 82.8329 115.73 82.3536 115.629C81.7917 115.513 81.1306 115.73 80.4199 116.247C78.2548 117.833 76.4037 121.773 77.1805 123.159C77.2962 123.359 77.5276 123.626 78.0069 123.626Z" fill="#0040B4" fill-opacity="0.5" stroke="#0040B4" stroke-opacity="0.5" stroke-width="5"/>
<path d="M261.944 217.088C256.565 216.873 251.336 216.261 246.71 215.269C240.616 213.962 235.501 211.995 231.514 209.448C226.624 206.323 223.408 202.288 221.922 197.427C219.853 190.598 216.581 184.149 212.462 178.758C207.629 172.425 201.704 167.547 194.821 164.24C182.164 158.139 166.761 157.56 149.063 162.52C127.623 168.523 110.941 174.823 98.7543 179.436C83.2008 185.306 74.6248 188.547 72.6688 184.992C72.4996 184.678 72.4808 184.347 72.6312 183.983C73.7408 181.288 82.9375 177.617 93.6011 173.384C101.538 170.226 110.546 166.638 117.637 162.835C125.837 158.436 130.143 154.451 130.802 150.664C131.723 145.34 134.168 141.603 137.854 139.867C142.048 137.899 147.784 138.412 154.931 141.388C168.058 146.845 200.106 153.36 219.571 153.36C226.285 153.36 231.514 152.583 233.94 150.714C235.407 149.59 235.821 148.118 235.162 146.332C232.999 140.429 235.501 134.327 240.974 132.161C247.838 129.449 255.418 133.385 261.944 139.685V138.858C259.386 136.444 256.79 134.559 254.176 133.203C249.38 130.706 244.603 130.177 240.748 131.715C235.012 133.98 232.379 140.33 234.636 146.481C235.219 148.068 234.861 149.342 233.582 150.334C229.539 153.442 216.468 153.707 197.698 151.045C181.487 148.746 164.015 144.596 155.194 140.925C147.878 137.883 141.973 137.387 137.629 139.42C133.773 141.223 131.234 145.092 130.275 150.582C128.846 158.8 109.192 166.638 93.3943 172.921C82.1852 177.386 73.3271 180.908 72.1422 183.802C71.9354 184.298 71.9542 184.761 72.1987 185.191C73.2518 187.109 75.8284 187.439 80.5866 186.265C84.9687 185.174 91.175 182.843 99.0176 179.883C111.186 175.286 127.868 168.986 149.27 162.983C166.817 158.072 182.07 158.635 194.595 164.654C201.385 167.928 207.253 172.756 212.03 179.006C216.111 184.364 219.364 190.763 221.414 197.526C222.919 202.487 226.21 206.621 231.213 209.812C235.256 212.391 240.447 214.376 246.616 215.715C251.299 216.724 256.584 217.352 262 217.551V217.088H261.944Z" fill="#0040B4" fill-opacity="0.5"/>
<path d="M261.981 207.092C253.166 208.884 246.215 208.605 240.866 206.254C232.974 202.769 229.508 195.174 226.946 187.48C224.234 179.359 216.454 173.359 210.201 168.542C206 165.303 202.685 162.755 202.534 160.717C202.497 160.142 202.723 159.632 203.213 159.155C204.927 157.478 210.389 158.53 217.321 159.862C222.877 160.931 229.809 162.262 237.023 162.624C240.357 162.788 242.542 162.295 243.729 161.111C245.424 159.402 244.784 156.541 244.106 153.516C243.145 149.292 242.166 144.935 246.743 142.535C248.268 141.73 249.964 141.582 251.772 142.042C254.823 142.847 258.308 145.511 262 149.801V148.963C258.986 145.543 255.464 142.502 251.942 141.582C249.983 141.056 248.137 141.236 246.46 142.108C241.544 144.689 242.618 149.423 243.559 153.615C244.219 156.525 244.84 159.27 243.315 160.799C242.26 161.851 240.207 162.295 237.061 162.131C229.884 161.769 222.99 160.437 217.453 159.369C210.088 157.955 204.757 156.919 202.817 158.81C202.233 159.385 201.951 160.026 202.007 160.733C202.158 162.969 205.548 165.583 209.862 168.887C216.059 173.655 223.782 179.606 226.437 187.595C229.037 195.387 232.54 203.097 240.64 206.665C243.748 208.029 247.383 208.72 251.584 208.72C254.729 208.72 258.195 208.342 262 207.569V207.092H261.981Z" fill="#0040B4" fill-opacity="0.5"/>
<path d="M262 194.352C257.585 195.362 252.198 195.942 247.821 194.468C244.604 193.392 242.265 191.306 240.881 188.293C238.973 184.121 235.625 180.246 232.931 177.134C230.275 174.071 227.993 171.422 228.704 170.23C229.153 169.485 230.78 169.203 233.679 169.352L234.652 169.402C243.332 169.866 247.709 170.097 249.86 168.359C250.907 167.515 251.413 166.19 251.469 164.088C251.562 161.19 253.302 158.773 255.808 158.061C257.679 157.531 259.793 157.945 262 159.203V158.591C259.157 157.068 256.949 157.217 255.64 157.597C252.909 158.376 251.001 160.975 250.907 164.088C250.851 166.041 250.402 167.25 249.486 167.995C247.503 169.601 242.957 169.352 234.689 168.905L233.717 168.856C230.518 168.69 228.778 169.054 228.199 169.998C227.319 171.472 229.471 173.972 232.463 177.448C235.138 180.544 238.468 184.386 240.339 188.492C241.779 191.637 244.229 193.806 247.597 194.948C249.579 195.611 251.749 195.876 253.919 195.876C256.781 195.876 259.624 195.429 261.981 194.899V194.352H262Z" fill="#0040B4" fill-opacity="0.5"/>
<path d="M262 184.951C257.49 185.048 251.101 184.56 249.898 181.14C249.165 179.056 249.673 177.037 251.289 175.457C253.469 173.324 257.321 172.217 262 172.282V171.793C257.152 171.745 253.149 172.901 250.875 175.132C249.109 176.858 248.564 179.04 249.353 181.287C250.218 183.729 253.412 185.113 258.843 185.39C259.557 185.423 260.271 185.439 260.948 185.439C261.305 185.439 261.643 185.439 261.981 185.423V184.951H262Z" fill="#0040B4" fill-opacity="0.5"/>
<path d="M20.7488 124.199C27.8854 126.772 34.701 129.245 39.3076 129.245C40.5537 129.245 41.6298 129.063 42.5172 128.664C43.7632 128.1 44.5562 127.087 44.896 125.676C45.7079 122.356 41.6865 119.153 35.5883 114.306C29.5468 109.508 21.2775 102.951 13.971 93.1245C9.02452 86.468 4.34234 82.1853 0.0188797 80.2764V80.8242C4.1913 82.7331 8.70356 86.9162 13.499 93.3901C20.8621 103.283 29.1503 109.857 35.2107 114.671C41.1578 119.402 45.1037 122.522 44.3485 125.56C44.0276 126.838 43.3479 127.701 42.2529 128.199C38.3448 130.009 29.9055 126.954 20.9754 123.718C15.0849 121.593 8.98676 119.385 3.70043 118.389C2.37885 118.14 1.13278 117.974 0 117.891V118.389C1.09503 118.472 2.30333 118.621 3.58715 118.87C8.81684 119.883 14.8772 122.074 20.7488 124.199Z" fill="#0040B4" fill-opacity="0.5"/>
<path d="M17.2276 115.598C19.1018 115.598 20.2911 115.182 20.7777 114.366C21.9671 112.318 18.381 108.414 10.0915 102.717C6.34324 100.157 2.4508 97.7882 0 96.332V96.8921C8.19935 101.741 22.1833 110.91 20.3092 114.142C19.9127 114.83 18.8315 115.134 17.3178 115.134C13.3352 115.134 6.27115 113.118 0 110.974V111.486C1.35154 111.95 2.77517 112.414 4.21681 112.862C10.0735 114.686 14.4345 115.598 17.2276 115.598Z" fill="#0040B4" fill-opacity="0.5"/>
<path d="M102.083 149.74C105.611 146.042 110.913 144.112 116.252 144.562C119.392 144.836 120.981 145.801 121 147.457C121.036 152.94 101.879 164.389 93.2517 165.193C91.996 165.322 91.0356 165.37 90.3152 165.37C88.7639 165.37 88.2462 165.129 88.0613 164.775C87.6918 164.036 89.0222 162.974 91.2391 161.205C93.6037 159.324 96.8362 156.751 98.9236 153.68C99.9212 152.216 100.974 150.898 102.083 149.74ZM114.756 144.997C110.1 144.997 105.63 146.83 102.545 150.046C101.455 151.171 100.42 152.49 99.4412 153.921C97.3167 157.056 94.0284 159.662 91.6453 161.56C90.0566 162.83 88.3933 164.148 88.615 164.566C88.7446 164.824 89.6504 165.048 93.2332 164.711C97.1866 164.341 103.782 161.591 110.045 157.716C116.492 153.728 120.501 149.788 120.482 147.473C120.463 146.106 119.041 145.303 116.252 145.061C115.753 145.013 115.254 144.997 114.756 144.997Z" fill="#0040B4" fill-opacity="0.5"/>
<path d="M19.3087 65.8661C23.5251 72.6716 28.0413 79.6744 32.4452 84.7868C37.2987 90.3923 41.5152 93.1211 45.3568 93.1211C45.3943 93.1211 45.4318 93.1211 45.4692 93.1211C49.2921 93.0717 52.6653 90.3758 55.776 84.9183C62.3162 73.4607 70.0557 66.4579 78.17 64.699C83.7169 63.499 89.4138 64.6825 95.0919 68.2497C99.4582 70.9949 102.569 71.899 104.555 71.0278C107.498 69.7456 107.666 64.962 107.854 59.4387C108.06 53.3729 108.285 46.4852 112.426 43.329C114.356 41.866 116.942 41.3235 120.334 41.6523C129.217 42.54 137.668 41.3564 144.771 38.266C151.517 35.3235 156.745 30.8358 159.875 25.2796C162.855 20.0028 163.717 14.0521 162.405 8.10141C161.861 5.6192 160.943 3.18631 159.688 0.802734H159.05C163.435 8.92333 163.679 17.4713 159.388 25.0659C156.314 30.5234 151.18 34.929 144.546 37.8221C137.537 40.8797 129.179 42.0304 120.409 41.1591C116.905 40.8139 114.094 41.4057 112.07 42.9509C107.741 46.2386 107.516 53.2414 107.291 59.4058C107.123 64.551 106.954 69.4168 104.312 70.5675C102.513 71.3566 99.6081 70.4524 95.4104 67.8223C89.5824 64.173 83.7356 62.9565 78.02 64.1894C69.7371 65.9976 61.8664 73.0826 55.2701 84.6717C52.253 89.9484 49.0485 92.5457 45.4692 92.595C45.4318 92.595 45.3943 92.595 45.3568 92.595C37.205 92.595 28.2662 79.2635 19.7959 65.5867C14.605 57.203 8.28973 51.4496 1 48.392V48.9345C8.10233 52.0249 14.2489 57.6798 19.3087 65.8661Z" fill="#0040B4" fill-opacity="0.5"/>
<path d="M26.1884 44.955C29.4115 44.955 32.2433 44.5419 34.5721 43.6992C39.8818 41.7824 42.5273 37.8662 42.4342 32.0167C42.341 26.2828 44.0737 22.0196 47.7252 18.9957C56.7238 11.4938 76.0995 12.7827 96.6302 14.1707C99.6484 14.369 102.778 14.5838 105.852 14.7656C108.852 14.9473 111.609 15.0299 114.143 15.0299C125.712 15.0299 132.27 13.1958 133.705 9.54395C134.711 6.9662 133.034 3.84316 130.351 0.802734H129.625C132.382 3.82663 134.133 6.91663 133.183 9.39524C131.544 13.5923 122.378 15.2448 105.908 14.2864C102.834 14.1046 99.7043 13.8898 96.6861 13.6915C76.0436 12.3035 56.5375 10.9981 47.3526 18.6487C43.5893 21.7883 41.8007 26.1671 41.8939 32.0497C41.987 37.6679 39.4533 41.4519 34.3858 43.2695C27.8651 45.6159 17.2644 44.5419 5.26638 40.3283C3.83183 39.8325 2.41592 39.2872 1 38.7254V39.2707C2.34139 39.816 3.70142 40.3283 5.06144 40.7909C12.9049 43.5339 20.208 44.955 26.1884 44.955Z" fill="#0040B4" fill-opacity="0.5"/>
<path d="M15.5462 28.867C22.2512 28.508 27.9318 25.4242 32.4577 19.6972L33.2027 18.7508C38.6971 11.8 41.4536 8.30829 45.5325 6.85613C49.6114 5.40397 55.1431 5.92609 66.1691 6.98666C67.5101 7.11719 68.9443 7.24772 70.4529 7.39457C83.5091 8.63462 92.9706 9.04253 99.3776 8.65094C105.543 8.27566 109.044 7.18246 110.385 5.20817C111.205 4.00075 111.167 2.53228 110.497 0.802734H109.919C110.59 2.46701 110.664 3.85391 109.901 4.96342C108.672 6.77455 105.226 7.8188 99.3404 8.17776C92.9706 8.55304 83.5463 8.14513 70.5088 6.90508C69.0001 6.75823 67.566 6.6277 66.225 6.49717C55.1058 5.42028 49.5369 4.88184 45.309 6.39927C41.0811 7.9167 38.2874 11.441 32.7371 18.4734L31.9921 19.4198C27.5593 25.0163 22.0277 28.0349 15.5089 28.3775C12.1564 28.557 7.29527 28.0512 1 25.4732V26.0116C6.53165 28.247 10.9644 28.8996 14.261 28.8996C14.708 28.8996 15.1364 28.8833 15.5462 28.867Z" fill="#0040B4" fill-opacity="0.5"/>
<path d="M22.8757 18.0276C25.6246 16.8906 27.5085 14.956 28.4504 12.2746C29.8537 8.37148 30.1613 4.43438 29.9306 0.802734H29.3539C29.5846 4.38346 29.277 8.26966 27.8929 12.1219C26.9894 14.6675 25.2017 16.5002 22.6065 17.5694C16.4359 20.1319 6.82425 18.0276 0 15.9572V16.5002C4.59435 17.8918 10.3998 19.2664 15.6285 19.2664C18.2621 19.2494 20.7611 18.91 22.8757 18.0276Z" fill="#0040B4" fill-opacity="0.5"/>
<path d="M137.84 12.9007C134.133 19.3104 117.813 18.4416 117.626 18.4252C108.479 18.4252 99.9834 17.8514 92.494 17.3268C81.3531 16.5564 71.7213 15.9006 64.6046 17.5236C60.8412 18.376 57.9163 19.835 55.6807 21.966C53.2587 24.2611 51.6193 27.3593 50.6505 31.4084C47.4275 44.949 38.988 46.5719 32.1879 47.8669C28.0893 48.6538 24.5495 49.3259 23.3758 52.5389C22.3139 55.4732 23.5435 61.3091 26.543 67.4073C29.7474 73.9481 34.1069 79.0135 38.2055 80.9479C39.5283 81.5708 40.851 81.8823 42.0992 81.8823C44.4839 81.8823 46.7382 80.7676 48.713 78.5873C51.7124 75.2759 54.153 71.6695 56.519 68.1778C60.9344 61.6534 64.735 56.0306 70.6408 54.7684C74.2737 53.9979 78.5027 54.9487 83.5329 57.7191C90.2025 61.3747 94.8228 62.5222 97.6732 61.2272C101.213 59.6207 101.567 54.6536 101.94 49.3751C102.443 42.2933 102.964 34.9657 111.236 35.2935C113.136 35.3591 114.962 35.4083 116.732 35.4083C134.617 35.4083 146.224 31.6871 151.235 24.3102C155.185 18.5235 154.179 11.5401 152.651 6.72059C151.924 4.40919 151.012 2.37646 150.211 0.802734H149.596C150.415 2.37646 151.366 4.49115 152.111 6.86813C154.812 15.4416 152.856 20.9497 150.751 24.0643C145.348 31.9985 132.046 35.6214 111.255 34.8181C107.286 34.6706 104.641 36.146 103.169 39.3426C101.884 42.113 101.623 45.8014 101.381 49.3751C101.027 54.5061 100.673 59.342 97.4124 60.8174C94.7483 62.0304 90.3143 60.8829 83.8123 57.3257C78.6331 54.4897 74.2737 53.5061 70.4917 54.3257C64.3624 55.6372 60.4873 61.3419 56.016 67.9647C53.6686 71.44 51.228 75.0301 48.2472 78.3086C45.3409 81.5053 42.0433 82.243 38.4291 80.5381C34.4422 78.6529 30.1573 73.6858 27.0087 67.2434C24.1211 61.3419 22.8542 55.506 23.8602 52.7192C24.9408 49.7685 28.1638 49.1456 32.2625 48.3751C35.6904 47.7194 39.5655 46.9817 43.0307 44.6539C47.0362 41.9655 49.7004 37.6705 51.1535 31.5231C52.9607 23.9004 57.1338 19.7366 64.6977 18.0153C67.8648 17.2941 71.5723 17.0318 75.6895 17.0318C80.6825 17.0318 86.3274 17.4252 92.4009 17.835C99.9089 18.3432 108.404 18.9333 117.552 18.9333C117.552 18.9333 117.552 18.9333 117.57 18.9333C117.608 18.9333 121.818 19.1792 126.42 18.5891C132.679 17.8022 136.666 15.9662 138.306 13.1466C140.076 10.0811 138.939 5.95012 134.915 0.819127H134.244C138.343 5.90094 139.535 9.95001 137.84 12.9007Z" fill="#0040B4" fill-opacity="0.5"/>
<path d="M139.048 19.1664C135.989 22.5825 126.738 23.999 112.321 23.2658C101.372 22.7158 91.2262 21.0994 91.1329 21.0828C91.0769 21.0661 84.8848 20.0829 77.9093 21.2994C73.7874 21.9993 70.2063 23.3157 67.2408 25.2154C63.5292 27.5817 60.7875 30.8479 59.1089 34.9139C55.8636 42.7959 52.2267 48.1784 47.9742 51.3779C44.2813 54.1607 40.6816 54.894 37.3244 55.4105C32.4192 56.1604 30.7592 58.96 30.237 61.1763C29.1925 65.5089 31.7104 71.3579 35.6272 73.7076C36.6903 74.3408 37.772 74.6574 38.8165 74.6574C39.7864 74.6574 40.7376 74.3908 41.6328 73.8409C45.3071 71.6079 49.0746 67.3086 53.066 62.776C60.657 54.1274 68.5091 45.1955 76.3985 49.6781C77.5549 50.328 78.6739 50.9779 79.7371 51.6112C85.5189 54.9939 90.1071 57.6768 92.998 56.4104C94.7139 55.6605 95.6838 53.6775 96.0381 50.1447C96.7655 42.8459 98.1084 37.3468 102.305 34.2473C105.289 32.031 109.542 31.2145 115.323 31.7144C131.513 33.1308 142.181 30.5646 147.049 24.1156C150.947 18.9498 150.276 12.2342 149.026 7.50165C148.317 4.81875 147.347 2.45247 146.583 0.802734H145.986C146.751 2.4358 147.758 4.85208 148.485 7.61829C149.697 12.2509 150.35 18.8165 146.583 23.8323C141.845 30.1146 131.345 32.5976 115.379 31.2145C109.448 30.6979 105.065 31.5644 101.951 33.864C97.6235 37.0802 96.2247 42.6793 95.4786 50.1114C95.1429 53.4109 94.2663 55.3272 92.7555 55.9771C90.1444 57.1103 85.6868 54.5107 80.0541 51.2112C78.9724 50.578 77.8533 49.9281 76.6969 49.2782C72.9481 47.1452 68.9008 47.6785 64.3312 50.9113C60.3399 53.7108 56.4232 58.1768 52.637 62.4927C48.6829 67.0087 44.9341 71.258 41.3344 73.4576C39.2268 74.7407 37.2498 74.0908 35.9442 73.3076C32.1954 71.058 29.7894 65.4422 30.7779 61.2929C31.2815 59.2266 32.8295 56.6103 37.4177 55.9105C40.8495 55.3772 44.5237 54.6273 48.3286 51.7611C52.6556 48.495 56.3486 43.0459 59.6312 35.0805C61.2725 31.0978 63.9396 27.915 67.5392 25.6154C70.4302 23.7657 73.9552 22.4825 77.9839 21.7827C80.595 21.3327 83.0943 21.1828 85.2018 21.1828C88.6336 21.1828 90.9837 21.566 91.021 21.566C91.1142 21.5827 101.298 23.1991 112.283 23.749C127.092 24.4989 136.25 23.0658 139.477 19.4664C142.666 15.9169 143.412 11.1511 141.621 5.63528C141.006 3.75226 140.204 2.08586 139.495 0.802734H138.861C139.589 2.0692 140.446 3.80225 141.081 5.7686C142.293 9.51799 142.927 14.8505 139.048 19.1664Z" fill="#0040B4" fill-opacity="0.5"/>
<path d="M79.9295 25.6874C81.9272 24.8313 84.1492 24.6509 86.2029 25.1942C88.2007 25.7211 89.7135 26.8242 90.6844 28.4706C93.5967 33.4265 91.0197 42.1362 89.2273 46.8778C88.7606 48.1288 88.1821 48.7871 87.4168 48.9354C87.3049 48.9519 87.1927 48.9686 87.0808 48.9686C85.8299 48.9686 84.3918 47.6681 82.5994 46.0546C80.9003 44.5234 78.9771 42.7944 76.6619 41.5761C72.7969 39.5345 70.8926 37.2457 71.0047 34.7431C71.2103 30.3801 77.689 26.6588 79.9295 25.6874ZM83.7947 25.3915C82.5624 25.3915 81.3293 25.6378 80.1717 26.1317C78.0055 27.0704 71.7509 30.6437 71.5642 34.7597C71.4524 37.0646 73.2827 39.2211 76.9607 41.1474C79.332 42.3822 81.3675 44.2261 83.0105 45.7079C84.7656 47.2885 86.2776 48.6554 87.3045 48.4579C87.8459 48.3427 88.3128 47.7829 88.7049 46.7294C92.8125 35.8299 91.3931 30.7583 90.1795 28.7167C89.2832 27.2022 87.8832 26.1813 86.0349 25.6874C85.3069 25.4898 84.5601 25.3915 83.7947 25.3915Z" fill="#0040B4" fill-opacity="0.5"/>
<path d="M81.5004 33.991C82.0757 33.7008 82.7173 33.6333 83.309 33.8211C83.9005 34.009 84.3441 34.3843 84.6235 34.9647C85.4454 36.6038 84.7387 39.4211 84.2455 40.9578C84.1634 41.2481 83.9988 41.641 83.6372 41.7264C83.5879 41.7434 83.5546 41.743 83.5053 41.743C83.0945 41.7426 82.7001 41.316 82.1743 40.7527C81.7305 40.2747 81.2208 39.7289 80.6127 39.3533C79.5114 38.6703 78.9685 37.8843 79.0014 37.0135C79.0673 35.2719 81.484 34.0081 81.5004 33.991ZM82.6342 34.2303C82.3221 34.2303 82.0266 34.2994 81.7309 34.4529C81.2871 34.692 79.5608 35.8014 79.5112 37.0477C79.4783 37.6964 79.9387 38.3285 80.8754 38.909C81.5328 39.3187 82.0918 39.9163 82.5356 40.3943C82.8971 40.7699 83.3576 41.2655 83.5385 41.2147C83.5878 41.2147 83.687 41.0772 83.7856 40.7869C84.1473 39.6085 84.9517 36.7068 84.2123 35.1873C83.9823 34.7435 83.6539 34.4529 83.1938 34.3162C83.013 34.265 82.815 34.2303 82.6342 34.2303Z" fill="#0040B4" fill-opacity="0.5"/>
<path d="M262 38.6285C251.65 32.1991 239.184 26.8467 229.302 29.8493C222.152 32.0196 217.193 38.3511 214.591 48.6642C213.393 53.4291 210.398 56.4317 205.701 57.5903C196.904 59.777 182.829 54.7509 173.003 45.8901C165.123 38.808 161.96 31.0242 164.318 24.5458C166.508 18.5407 167.126 12.0134 166.171 5.17603C165.965 3.7237 165.685 2.27138 165.348 0.802734H164.767C165.123 2.30402 165.404 3.77266 165.61 5.2413C166.564 12.0134 165.947 18.4754 163.794 24.4153C161.361 31.0731 164.58 39.0201 172.61 46.2491C177.289 50.4592 183.166 54.0003 189.174 56.2196C193.441 57.8024 197.559 58.602 201.19 58.602C202.874 58.602 204.447 58.4225 205.869 58.0799C210.698 56.8886 213.917 53.6739 215.152 48.7784C217.717 38.6448 222.527 32.4439 229.489 30.3225C239.259 27.3526 251.706 32.8029 262 39.2486V38.6285Z" fill="#0040B4" fill-opacity="0.5"/>
<path d="M262 26.086C254.391 20.3562 242.456 15.2831 232.758 17.007C226.735 18.0741 222.147 21.6039 219.145 27.4651C214.986 35.5754 209.708 41.2559 203.442 44.3753C196.728 47.7081 190.761 47.1499 186.938 46.0991C182.313 44.8186 178.322 42.126 175.692 38.5142C172.97 34.7873 171.963 30.3874 172.876 26.1352C174.76 17.3025 175.487 8.79815 175.021 0.802734H174.462C174.909 8.74889 174.2 17.2368 172.336 26.0367C171.403 30.4202 172.429 34.9351 175.226 38.7604C177.93 42.4708 182.033 45.229 186.789 46.5424C188.784 47.1006 190.835 47.3633 192.887 47.3633C196.561 47.3633 200.272 46.4932 203.722 44.7857C210.1 41.6171 215.452 35.8545 219.667 27.6457C222.595 21.9323 227.033 18.5174 232.87 17.4667C237.607 16.6294 243.295 17.3846 249.319 19.6831C253.832 21.4069 258.382 23.9353 262 26.7263V26.086Z" fill="#0040B4" fill-opacity="0.5"/>
<path d="M139.791 226.071C139.315 225.684 138.711 225.529 138.016 225.591C135.655 225.808 132.434 228.673 130 231.198H130.714C133.038 228.813 136.003 226.257 138.071 226.056C138.601 226.009 139.041 226.118 139.407 226.412C140.669 227.419 142.078 229.262 143.359 231.198H144C142.664 229.153 141.145 227.171 139.791 226.071Z" fill="#0040B4" fill-opacity="0.5"/>
<path d="M262 16.6244C260.461 16.7413 258.753 16.7413 256.932 16.5911C250.532 16.057 242.8 13.854 235.705 10.5161C227.484 6.64408 220.615 12.4187 212.676 19.0945C206.632 24.1848 199.782 29.9427 191.298 32.0289C188.314 32.7633 186.005 32.3794 184.41 30.9274C178.986 25.9372 182.608 9.59814 185.086 0.802734H184.504C183.753 3.48975 182.89 6.84436 182.214 10.3492C180.131 21.2475 180.731 28.2905 183.997 31.2946C185.179 32.3794 186.7 32.9135 188.539 32.9135C189.44 32.9135 190.397 32.7799 191.448 32.5296C200.044 30.4267 206.97 24.6187 213.051 19.4784C220.84 12.9361 227.559 7.27829 235.423 10.9834C242.668 14.4047 250.288 16.5744 256.857 17.1084C258.697 17.2586 260.423 17.2753 261.981 17.1585V16.6244H262Z" fill="#0040B4" fill-opacity="0.5"/>
<path d="M192.969 22.4282C193.27 22.4611 193.553 22.4775 193.854 22.4775C198.868 22.4775 204.466 17.6864 207.463 14.7002C211.441 10.7623 215.305 5.64304 218 0.802734H217.378C214.72 5.52819 210.932 10.5162 207.049 14.372C201.696 19.6881 196.72 22.379 193.044 21.936C191.517 21.7555 190.518 21.1484 189.99 20.1147C188.011 16.1769 193.364 7.0213 197.568 0.819142H196.908C196.079 2.06614 195.193 3.41158 194.345 4.80624C189.727 12.3703 188.087 17.5879 189.482 20.3116C190.066 21.5094 191.253 22.2314 192.969 22.4282Z" fill="#0040B4" fill-opacity="0.5"/>
<path d="M199.709 12.0245C199.825 12.0415 199.961 12.0415 200.097 12.0415C201.261 12.0415 203.104 11.4285 205.665 8.85718C207.566 6.96702 209.39 4.39573 210.457 2.14798C210.631 1.77335 210.825 1.31359 211 0.819763H210.399C210.263 1.17736 210.108 1.55198 209.933 1.94364C207.741 6.57537 202.735 11.8712 199.806 11.4966C199.263 11.4285 198.913 11.2241 198.719 10.8495C197.73 8.8742 201.746 3.03346 203.473 0.802734H202.774C201.533 2.45449 197.012 8.66986 198.196 11.0538C198.448 11.5988 198.952 11.9223 199.709 12.0245Z" fill="#0040B4" fill-opacity="0.5"/>
<path d="M261.982 10.0957C259.511 11.337 256.644 11.7899 253.434 11.4041C249.845 10.9847 245.824 9.57567 241.46 7.2105C237.654 5.14727 234.246 2.69823 231.83 0.802734H231C233.471 2.76532 237.095 5.43243 241.189 7.64663C245.625 10.0454 249.719 11.4879 253.38 11.9073C254.137 11.9912 254.877 12.0415 255.616 12.0415C257.96 12.0415 260.088 11.5886 262 10.666V10.0957H261.982Z" fill="#0040B4" fill-opacity="0.5"/>
<path d="M141.4 148.344C144.981 146.476 151.187 146.425 159.849 148.21C166.035 149.494 171.321 151.294 171.773 151.445C177.342 152.362 178.036 153.18 177.999 153.78C177.961 154.597 176.461 155.715 165.137 157.216C158.106 158.15 149.724 158.916 143.612 159.467L142.094 159.6C140.987 159.7 139.993 159.751 139.094 159.751C135.663 159.751 133.657 159.017 133.132 157.583C132.175 154.998 136.582 150.862 141.4 148.344ZM148.937 147.41C146.144 147.41 143.556 147.793 141.662 148.777C139.281 150.028 137.05 151.646 135.531 153.23C133.938 154.914 133.263 156.399 133.637 157.432C134.219 158.967 137.106 159.551 142 159.1L143.537 158.983C149.649 158.416 158.012 157.666 165.024 156.732C176.142 155.248 177.379 154.164 177.398 153.764C177.417 153.563 177.023 152.83 171.605 151.93L171.549 151.912C171.485 151.893 166.069 150.011 159.699 148.694C156.418 148.01 152.5 147.41 148.937 147.41Z" fill="#0040B4" fill-opacity="0.5"/>
<path d="M152.284 39.1661C155.121 38.0695 158.484 38.4138 160.855 40.0587C162.72 41.3589 164.741 43.208 163.731 44.7432C162.953 45.9336 160.485 46.5596 157.201 46.5596C155.006 46.5596 152.44 46.2779 149.759 45.6983C147.33 45.1814 146.105 44.476 146.008 43.5674C145.853 42.3144 147.971 40.842 152.284 39.1661ZM155.705 39.0098C154.617 39.0098 153.528 39.1973 152.518 39.5889C148.573 41.1241 146.455 42.519 146.571 43.5215C146.649 44.1951 147.796 44.79 149.895 45.2442C156.094 46.5914 162.059 46.2623 163.205 44.5235C163.866 43.5366 162.914 42.1117 160.466 40.42C159.106 39.4958 157.415 39.0099 155.705 39.0098Z" fill="#0040B4" fill-opacity="0.5"/>
<path d="M205.295 226.111C195.489 225.028 189.729 217.775 182.464 208.587C180.431 206.027 178.323 203.369 175.951 200.612C170.003 193.705 163.34 189.553 156.169 188.274C148.019 186.83 139.059 189.061 129.554 194.902C119.108 201.318 103.994 211.639 91.025 221.221C87.3923 223.912 82.6491 227.489 78 231.197H78.8282C82.5173 228.276 86.7147 225.061 91.3826 221.598C104.332 212.032 119.428 201.712 129.855 195.313C147.567 184.434 162.926 186.321 175.481 200.924C177.833 203.664 179.941 206.322 181.974 208.882C189.334 218.169 195.15 225.487 205.201 226.603C212.335 227.39 216.419 228.933 217.398 231.197H218C217.078 228.654 212.805 226.947 205.295 226.111Z" fill="#0040B4" fill-opacity="0.5"/>
<path d="M152.137 207.218C148.6 205.866 144.97 206.029 141.339 207.69C132.338 211.796 124.179 216.65 117.087 222.14C112.726 225.512 109.433 228.607 107 231.197H107.749C113.288 225.382 123.992 216.145 141.582 208.114C145.063 206.534 148.525 206.371 151.894 207.658C158.687 210.248 164.001 218.23 167.257 224.486C168.511 226.864 169.559 229.194 170.401 231.197H171C170.139 229.145 169.073 226.75 167.781 224.29C162.991 215.086 157.713 209.336 152.137 207.218Z" fill="#0040B4" fill-opacity="0.5"/>
<path opacity="0.459984" d="M228.075 129.885C228.616 129.999 229.118 130.048 229.601 130.048C232.19 130.048 234.006 128.495 234.682 126.827C235.494 124.782 234.856 122.035 231.533 120.857C226.162 118.944 222.394 118.371 220.307 119.14C219.361 119.483 218.916 120.301 219.013 121.446C219.148 122.901 220.172 124.717 221.757 126.32C223.534 128.119 225.775 129.378 228.075 129.885Z" fill="#0040B4" fill-opacity="0.5" stroke="#0040B4" stroke-opacity="0.5" stroke-width="5"/>
<path d="M64.7584 169.405C67.6988 167.965 71.672 168.627 73.2418 169.753C73.9174 170.233 74.1564 170.797 73.8981 171.327C73.3813 172.453 71.3937 173.612 68.0162 174.755C67.5196 174.921 67.0229 175.003 66.566 175.003C65.096 175.003 63.9438 174.209 63.3873 173.281C62.6919 172.089 62.8112 170.366 64.7584 169.405ZM68.6129 169.091C67.401 169.091 66.149 169.306 65.0563 169.836C63.4271 170.631 63.3077 172.022 63.9235 173.049C64.5394 174.076 66.0102 174.904 67.7985 174.291C70.9773 173.215 72.905 172.122 73.3619 171.145C73.5603 170.731 73.2028 170.367 72.8453 170.135C72.0109 169.539 70.3613 169.091 68.6129 169.091Z" fill="#0040B4" fill-opacity="0.5"/>
<path d="M79.9485 214.427C83.7204 212.525 92.7923 212.219 94.6028 213.54C94.98 213.798 95.0929 214.137 94.9231 214.491C94.1865 216.087 86.2097 219.567 83.5696 220.485C83.004 220.695 82.4755 220.775 81.9476 220.759C80.3259 220.759 79.062 219.873 78.4397 218.809C77.6477 217.456 77.799 215.506 79.9485 214.427ZM94.2259 213.911C92.604 212.735 83.683 213.105 80.2317 214.846C78.3838 215.78 78.2518 217.407 78.9495 218.6C79.6473 219.792 81.3261 220.759 83.344 220.034C86.6822 218.858 93.7914 215.57 94.3763 214.313C94.4328 214.201 94.4518 214.072 94.2259 213.911Z" fill="#0040B4" fill-opacity="0.5"/>
<path d="M15.8917 11.4967C19.0505 9.76883 17.9976 4.27398 16.9641 0.802734H16.3596C16.6326 1.67444 16.8861 2.68624 17.1006 3.74474C17.6076 6.43768 17.7636 9.90893 15.5602 11.1231C12.9863 12.524 7.76059 10.6872 0 5.65937V6.26645C5.98619 10.1113 10.5294 12.0415 13.5713 12.0415C14.4682 12.0259 15.2482 11.8547 15.8917 11.4967Z" fill="#0040B4" fill-opacity="0.5"/>
<path d="M118.781 114.513C121.135 113.655 124.844 113.857 129.794 115.136C133.442 116.086 136.462 117.285 136.506 117.304C138.064 117.959 138.119 118.583 137.915 118.988C137.303 120.158 133.447 120.844 130.054 121.094C128.997 121.172 127.811 121.218 126.587 121.218C123.862 121.218 120.95 120.984 118.873 120.313C115.907 119.362 115.758 117.943 116.166 116.914C116.593 115.807 117.464 114.996 118.781 114.513ZM122.248 114.465C121.043 114.465 119.93 114.59 119.003 114.933C117.835 115.354 117.057 116.071 116.686 117.054C116.222 118.27 117.02 119.221 119.096 119.876C121.543 120.656 125.734 120.937 130.017 120.625C133.965 120.329 137.005 119.58 137.414 118.801C137.618 118.395 136.895 117.99 136.265 117.725C136.074 117.644 128.031 114.465 122.248 114.465Z" fill="#0040B4" fill-opacity="0.5"/>
<path d="M228.428 215.616C218.535 214.051 217.355 208.2 215.856 200.784C214.17 192.504 212.09 182.204 196.952 173.989C189.363 169.882 182.094 167.307 174.712 166.117C168.117 165.058 161.559 165.123 154.702 166.329C141.962 168.578 129.933 174.576 118.28 180.362C107.375 185.789 96.0963 191.412 83.9555 194.183C77.4354 195.683 71.2151 196.237 64.9385 195.911C57.8939 195.536 50.9616 194.053 43.767 191.363C31.1952 186.669 18.6984 185.04 6.6325 186.506C4.40293 186.784 2.1921 187.158 0 187.647V188.153C2.22957 187.664 4.45914 187.272 6.72618 186.995C18.6984 185.529 31.0828 187.158 43.5609 191.803C52.423 195.112 60.6293 196.481 68.3672 196.481C87.0469 196.481 102.991 188.544 118.561 180.802C130.701 174.755 142.149 169.051 154.815 166.818C161.597 165.612 168.08 165.546 174.6 166.606C181.925 167.779 189.139 170.338 196.652 174.413C203.303 178.015 211.584 182.497 215.313 200.865C216.081 204.696 216.755 208.004 218.535 210.661C220.503 213.611 223.631 215.339 228.334 216.088C242.255 218.305 250.536 221.809 254.377 227.122C255.295 228.377 255.97 229.747 256.419 231.197H257C256.532 229.649 255.838 228.214 254.845 226.862C250.911 221.434 242.517 217.849 228.428 215.616Z" fill="#0040B4" fill-opacity="0.5"/>
<path d="M217.555 221.021C205.77 219.498 204.665 216.435 202.267 209.76C200.169 203.942 197.002 195.128 184.618 182.343C167.963 165.135 150.295 175.894 129.836 188.355C109.096 200.993 85.5831 215.301 56.8806 204.996C45.8829 201.042 34.7916 199.098 23.8876 199.179C15.7752 199.243 7.7377 200.443 0 202.743V203.262C7.7377 200.945 15.7564 199.746 23.8876 199.681C34.7166 199.584 45.733 201.544 56.6557 205.466C69.5831 210.116 82.6417 210.197 96.5433 205.741C108.703 201.836 119.607 195.193 130.155 188.776C140.272 182.619 149.827 176.802 158.763 174.728C168.637 172.427 176.712 174.954 184.187 182.684C196.496 195.403 199.644 204.153 201.724 209.938C204.122 216.614 205.34 219.968 217.48 221.539C224.581 222.463 229.021 224.732 230.689 228.28C231.101 229.171 231.344 230.144 231.438 231.197H232C231.925 230.079 231.663 229.042 231.213 228.102C229.452 224.343 224.862 221.977 217.555 221.021Z" fill="#0040B4" fill-opacity="0.5"/>
<path d="M158.441 198.866C153.243 195.848 146.269 195.945 137.724 199.208C130.937 201.786 123.14 206.353 114.539 212.748C105.752 219.306 97.8987 226.483 93 231.198H93.7479C98.6466 226.483 106.313 219.501 114.895 213.107C123.458 206.728 131.199 202.193 137.93 199.632C146.287 196.451 153.075 196.321 158.104 199.257C169.79 206.06 175.998 217.544 181.476 227.674C182.13 228.865 182.747 230.04 183.383 231.181H184C183.327 229.974 182.654 228.734 181.981 227.462C176.502 217.283 170.257 205.733 158.441 198.866Z" fill="#0040B4" fill-opacity="0.5"/>
<path d="M144.532 216.237C142.137 214.745 139.041 214.777 135.337 216.335C132.425 217.568 129.126 219.742 125.532 222.809C122.105 225.745 119.027 228.942 117 231.197H117.719C123.468 224.885 136.645 211.921 144.201 216.627C149.084 219.677 151.941 225.729 154.41 231.197H155C152.494 225.632 149.6 219.401 144.532 216.237Z" fill="#0040B4" fill-opacity="0.5"/>
<path d="M51.7985 216.033C47.0048 214.979 42.0432 213.892 37.5852 212.598C26.5241 209.354 13.7097 212.086 4.90566 214.947C3.17096 215.506 1.52952 216.097 0 216.688V217.216C1.58548 216.608 3.30153 215.985 5.11084 215.394C13.8216 212.566 26.5055 209.865 37.3986 213.061C41.8566 214.371 46.8369 215.458 51.6493 216.513C62.4679 218.877 72.6895 221.114 73.3983 225.173C73.6968 226.883 72.3165 228.88 69.2201 231.197H70.0408C72.9693 228.88 74.2564 226.867 73.9579 225.093C73.1745 220.715 63.2699 218.542 51.7985 216.033Z" fill="#0040B4" fill-opacity="0.5"/>
<path d="M45.3179 222.764C41.5761 222.202 37.0216 222.235 32.8262 222.864C25.059 224.021 9.86487 227.725 0 230.221V230.734C9.86487 228.237 25.1535 224.517 32.9396 223.343C37.0783 222.731 41.5572 222.682 45.2423 223.244C50.5716 224.054 52.4426 225.757 53.0851 227.063C53.6709 228.237 53.5198 229.626 52.6504 231.197H53.293C54.1245 229.576 54.219 228.121 53.5953 226.865C52.3292 224.319 48.3983 223.227 45.3179 222.764Z" fill="#0040B4" fill-opacity="0.5"/>
<path d="M22.9517 131.703C31.3928 136.681 36.9019 143.821 41.7388 150.125C47.2292 157.264 51.9914 163.438 59.4241 164.437C60.115 164.535 60.8247 164.568 61.5343 164.568C67.2676 164.568 74.084 161.669 82.7306 155.561C89.2108 150.976 94.6079 146.817 99.37 143.133C109.417 135.355 116.682 129.738 124.712 127.921C132.91 126.054 141.912 128.019 155.769 134.683C167.086 140.136 180.588 143.886 192.783 144.967C198.46 145.474 203.614 145.376 207.704 144.656C212.018 143.902 215.043 142.543 216.668 140.595C218.89 137.926 219.432 132.964 209.329 124.465C197.246 114.297 183.501 113.068 168.953 111.775C159.317 110.923 149.345 110.023 139.279 106.469C127.887 102.458 118.008 95.4818 109.062 85.182C102.451 77.5676 94.7386 73.9651 86.727 74.7675C81.2739 75.3079 75.9141 77.8296 70.7972 82.2345C65.6615 86.6885 61.0301 92.8291 57.071 100.493C54.1203 106.175 50.8709 109.089 47.0798 109.384C38.8815 110.023 29.3946 97.938 20.2438 86.2463C15.6684 80.4005 10.9436 74.3745 6.4429 70.0515C4.10851 67.7754 1.97956 66.1215 0 65.0244V65.6303C6.2935 69.2655 13.1286 77.977 19.7956 86.492C24.3896 92.3542 29.1518 98.4293 33.7272 102.851C38.62 107.567 42.8033 109.875 46.4822 109.875C46.7063 109.875 46.9304 109.859 47.1545 109.843C51.151 109.531 54.5686 106.535 57.5939 100.673C61.5343 93.0583 66.1097 86.9668 71.208 82.562C76.2316 78.2226 81.4793 75.75 86.8017 75.226C94.5892 74.4564 102.153 77.9934 108.633 85.4603C117.634 95.842 127.607 102.851 139.073 106.895C149.214 110.481 159.224 111.365 168.897 112.233C183.352 113.527 197.003 114.739 208.955 124.793C218.778 133.062 218.33 137.778 216.239 140.284C213.176 143.935 204.436 145.491 192.857 144.459C180.737 143.378 167.31 139.645 156.049 134.225C142.061 127.495 132.948 125.53 124.581 127.429C116.42 129.28 109.118 134.929 99.0152 142.756C94.2531 146.441 88.8746 150.6 82.3944 155.168C72.7954 161.948 65.5308 164.731 59.5174 163.929C52.3275 162.979 47.6401 156.888 42.2057 149.83C37.3315 143.493 31.8036 136.321 23.2691 131.277C16.1913 127.102 9.44958 125.006 3.15609 125.006C2.09161 125.006 1.0458 125.071 0 125.186V125.677C7.07785 124.875 14.772 126.873 22.9517 131.703Z" fill="#0040B4" fill-opacity="0.5"/>
<path d="M10.5254 180.41C19.2121 180.525 28.9307 182.058 37.5049 183.394C49.7938 185.323 59.4749 186.84 60.6757 183.345C62.4768 178.101 56.6231 173.764 46.9045 166.592C39.9439 161.447 31.2572 155.049 21.9701 145.849C14.9907 138.956 8.03006 135.823 1.31333 136.582C0.900567 136.631 0.469045 136.697 0 136.78V137.291C0.450283 137.208 0.919329 137.126 1.38837 137.076C7.91748 136.351 14.6905 139.418 21.5573 146.195C30.8819 155.429 39.5687 161.843 46.5481 167.004C56.0791 174.045 61.8389 178.299 60.1504 183.229C59.0997 186.296 49.1372 184.73 37.6174 182.932C25.1784 180.97 10.5629 178.678 0 180.673V181.185C3.00189 180.607 6.49159 180.36 10.5254 180.41Z" fill="#0040B4" fill-opacity="0.5"/>
<path d="M35.6725 178.214C40.6033 178.214 43.3722 177.429 43.9032 175.844C45.079 172.388 35.2742 166.161 29.3004 162.756C20.8611 157.931 10.8099 153.391 5.40493 151.938C3.60328 151.454 1.78268 151.12 0 150.92V151.421C1.72578 151.621 3.4895 151.955 5.23424 152.422C10.6012 153.858 20.5956 158.365 28.978 163.173C38.7448 168.765 44.1118 173.44 43.3342 175.693C42.5756 177.897 35.8242 178.298 24.3127 176.828C15.001 175.66 5.27217 173.607 0.0189647 172.304V172.822C5.32907 174.141 15.001 176.161 24.2558 177.346C28.8642 177.93 32.6761 178.214 35.6725 178.214Z" fill="#0040B4" fill-opacity="0.5"/>
<path d="M11.1797 168.582C13.442 168.582 14.7051 168.196 14.9502 167.426C15.4781 165.885 11.7075 163.322 8.44602 161.446C5.63696 159.822 2.432 158.281 0 157.343V157.895C2.37544 158.833 5.44844 160.324 8.14437 161.882C12.3297 164.294 14.724 166.371 14.4035 167.292C13.8945 168.783 6.33451 167.945 0 166.689V167.191C1.90412 167.56 4.03448 167.928 6.10828 168.196C8.18208 168.448 9.85997 168.582 11.1797 168.582Z" fill="#0040B4" fill-opacity="0.5"/>
<path d="M88.1807 84.4826C90.8437 84.0069 93.2833 84.4171 95.3877 85.7131C103.377 90.6022 108.555 95.3604 113.137 99.5441C120.177 105.976 125.727 111.061 137.907 113.998C145.599 115.852 149.23 117.559 148.988 119.233C148.802 120.529 146.195 121.562 141.223 122.317C136.399 123.038 129.433 123.482 121.09 123.58C114.795 123.662 108.257 125.812 101.087 130.193C94.8293 134.032 88.9062 139.035 83.6729 143.465C75.9439 150.011 69.1837 155.737 63.6524 155.737C63.1123 155.737 62.5907 155.688 62.0879 155.573C57.525 154.589 53.8934 151.734 51.584 147.354C49.256 142.891 48.4734 137.132 49.3487 130.685C50.1495 124.877 52.4776 119.118 56.128 114.031C69.1091 95.9019 79.8929 85.9592 88.1807 84.4826ZM90.2852 84.7941C89.652 84.7941 88.981 84.8599 88.3106 84.9748C80.1904 86.4187 69.5188 96.2796 56.6123 114.294C53.0179 119.315 50.708 125.008 49.9258 130.75C49.0692 137.099 49.8334 142.776 52.1241 147.156C54.3403 151.406 57.842 154.163 62.2373 155.114C62.7028 155.213 63.1869 155.262 63.6709 155.262C68.9602 155.262 75.6463 149.601 83.2823 143.137C88.5157 138.691 94.4569 133.67 100.771 129.815C108.034 125.385 114.683 123.187 121.09 123.105C129.415 123.006 136.343 122.563 141.129 121.841C147.294 120.906 148.355 119.773 148.448 119.183C148.708 117.313 141.074 115.262 137.777 114.475C125.448 111.489 119.842 106.369 112.765 99.8888C108.202 95.7215 103.042 90.996 95.0899 86.1232C93.6373 85.2374 92.0357 84.7941 90.2852 84.7941Z" fill="#0040B4" fill-opacity="0.5"/>
<path d="M165.572 119.012C168.98 117.103 173.413 116.696 178.795 117.838C183.059 118.735 187.92 120.594 193.246 123.367C202.11 127.983 209.354 133.627 209.708 133.904C212.315 135.519 213.358 136.726 212.892 137.623C212.445 138.455 210.657 138.879 207.455 138.879C204.717 138.879 200.955 138.569 196.132 137.966C187.398 136.857 177.435 135.013 171.55 133.757C161.718 131.669 157.51 129.826 157.044 127.38C156.615 125.178 159.334 122.518 165.572 119.012ZM173.189 117.69C170.359 117.69 167.919 118.278 165.871 119.42C159.93 122.764 157.23 125.341 157.584 127.265C158.105 130.022 164.995 131.848 171.662 133.267C187.826 136.709 210.974 140.07 212.352 137.411C212.538 137.052 212.408 136.171 209.354 134.279L209.336 134.263C209.261 134.214 201.942 128.456 192.948 123.775C187.678 121.035 182.872 119.191 178.664 118.31C176.709 117.903 174.884 117.69 173.189 117.69Z" fill="#0040B4" fill-opacity="0.5"/>
<path d="M177.24 123.569C179.555 122.171 183.063 122.743 187.62 125.27C190.857 127.055 193.515 129.244 193.715 129.414C194.438 129.885 195.216 130.509 194.944 131.065C194.8 131.368 194.384 131.654 192.793 131.654C191.853 131.654 190.514 131.553 188.579 131.3C185.36 130.862 181.67 130.138 179.5 129.65C176.372 128.942 174.256 128.217 174.021 127.004C173.84 126.061 174.836 125 177.24 123.569ZM180.152 123.349C179.193 123.349 178.307 123.552 177.547 124.006C175.449 125.253 174.437 126.247 174.545 126.92C174.726 127.914 177.204 128.605 179.61 129.144C187.693 130.98 194.095 131.552 194.439 130.862C194.443 130.851 194.522 130.593 193.39 129.834L193.371 129.818C193.274 129.745 185.611 123.349 180.152 123.349Z" fill="#0040B4" fill-opacity="0.5"/>
<path d="M232.51 41.5623C227.966 43.0296 225.273 46.8544 221.515 52.1629C219.701 54.7347 217.625 57.6528 215.026 60.7522C206.573 70.7593 198.065 67.0829 183.965 60.9995C176.691 57.8506 167.621 53.9434 156.42 51.1078C140.132 46.9862 129.268 47.2006 123.209 51.7672C117.655 55.9547 115.897 63.6867 117.655 76.1008C119.188 86.8663 128.351 95.1589 144.882 100.764C160.459 106.04 178.897 107.54 188.49 107.985C205.171 108.727 219.813 111.002 232.043 114.711C241.804 117.679 250.051 121.57 256.54 126.285C258.671 127.834 260.485 129.368 262 130.851V130.126C260.56 128.774 258.896 127.356 256.951 125.939C250.406 121.174 242.103 117.25 232.267 114.266C219.981 110.54 205.264 108.265 188.528 107.507C178.953 107.078 160.59 105.578 145.088 100.319C128.763 94.7962 119.712 86.6355 118.216 76.0679C116.477 63.8351 118.178 56.2515 123.583 52.1794C129.492 47.7281 140.188 47.5303 156.27 51.6189C167.434 54.4545 176.466 58.3452 183.722 61.4776C190.884 64.577 196.55 67.017 201.599 67.4456C207.078 67.9072 211.36 65.9453 215.474 61.0819C218.092 57.9825 220.168 55.048 222.001 52.4597C225.685 47.2335 228.359 43.4582 232.716 42.0569C237.316 40.5731 243.543 41.8261 253.566 46.2444C256.614 47.5962 259.419 49.08 262 50.6462V50.0197C259.494 48.503 256.764 47.0852 253.809 45.7827C243.618 41.2985 237.26 40.0291 232.51 41.5623Z" fill="#0040B4" fill-opacity="0.5"/>
<path d="M243.574 57.0018C238.972 57.1177 235.081 59.0554 232.013 62.7651C229.226 66.127 227.262 69.1909 225.503 71.8738C219.854 80.5684 217.272 84.5431 199.968 78.5314C194.918 76.7759 188.969 74.2255 182.665 71.526C165.305 64.0734 145.625 55.6272 135.206 59.7344C132.063 60.9599 129.912 63.3116 128.808 66.6901C127.312 71.261 127.891 75.4013 130.566 78.9951C134.457 84.2119 142.651 88.3522 155.596 91.6645C165.66 94.248 178.624 96.3182 196.358 98.2062C213.774 100.061 231.807 104.996 247.109 112.084C252.815 114.734 257.885 117.583 262 120.415V119.752C257.941 117.003 253.002 114.254 247.353 111.637C231.994 104.516 213.886 99.5642 196.395 97.7093C178.68 95.8213 165.754 93.7512 155.727 91.1676C142.913 87.8885 134.832 83.7979 131.015 78.697C128.434 75.2357 127.873 71.2445 129.313 66.806C130.398 63.5269 132.381 61.3574 135.393 60.1816C145.588 56.1737 165.137 64.5703 182.384 71.9732C188.688 74.6892 194.656 77.2396 199.725 78.9951C208.274 81.9596 213.531 82.622 217.31 81.1812C220.957 79.7901 223.053 76.5772 225.933 72.1222C227.673 69.4393 229.637 66.4086 232.406 63.0632C235.362 59.486 239.103 57.6146 243.536 57.4986C249.785 57.3496 256.575 60.7281 261.981 64.3219V63.6925C253.488 58.0617 247.353 56.9024 243.574 57.0018Z" fill="#0040B4" fill-opacity="0.5"/>
<path d="M242.579 69.1459C239.267 69.6352 236.821 71.886 235.297 75.833C230.742 87.5926 220.091 86.7934 213.034 86.2715C209.195 85.9779 206.41 85.7822 206.071 87.6905C205.639 90.1044 207.163 91.9637 210.927 93.5132C214.276 94.8996 219.094 95.976 224.664 97.1993C236.332 99.7763 251.273 103.087 261.981 111.585V110.916C251.217 102.565 236.388 99.287 224.796 96.7263C213.731 94.2798 205.751 92.5183 206.617 87.7557C206.862 86.3694 209.082 86.4672 212.978 86.7608C216.591 87.0218 221.07 87.3643 225.304 86.1247C230.31 84.6568 233.753 81.3458 235.823 75.9961C237.272 72.2448 239.587 70.0919 242.673 69.6352C248.488 68.7544 256.147 73.8269 262 78.6873V78.0023C261.699 77.7413 261.379 77.4967 261.059 77.2357C253.456 71.1683 247.246 68.4445 242.579 69.1459Z" fill="#0040B4" fill-opacity="0.5"/>
<path d="M250.326 81.6792C247.403 80.7215 244.935 80.9096 243.037 82.2606C241.48 83.3551 240.816 84.9113 241.044 86.8779C241.86 93.6842 253.382 103.706 262 108.374V107.759C258.185 105.655 253.933 102.577 250.288 99.2421C245.087 94.4709 241.993 90.0588 241.594 86.7924C241.385 85.031 241.974 83.6287 243.378 82.6368C248.485 79.0285 256.894 85.3559 262 90.0417V89.3063C260.823 88.2289 259.475 87.1003 258.052 86.0229C255.223 83.9023 252.623 82.4316 250.326 81.6792Z" fill="#0040B4" fill-opacity="0.5"/>
<path d="M142.144 64.4297C148.047 63.293 159.16 66.8175 175.148 74.9385C187.028 80.9483 197.32 87.397 197.432 87.4619C199.655 88.9074 200.439 90.093 199.766 90.9863C199.019 91.9447 196.61 92.3184 193.434 92.3184C189.082 92.3183 183.255 91.6199 178.137 90.7266C165.679 88.5663 153.799 84.8955 146.365 80.916C137.997 76.4331 135.158 71.5766 138.166 66.8662C138.969 65.5994 140.314 64.787 142.144 64.4297ZM144.516 64.7061C143.694 64.7061 142.947 64.7705 142.256 64.9004C140.593 65.2253 139.379 65.9568 138.651 67.0938C137.157 69.4326 137.175 71.8041 138.725 74.1592C140.126 76.3032 142.798 78.4304 146.645 80.4932C154.023 84.4401 165.828 88.0952 178.23 90.2393C183.553 91.1651 188.578 91.7176 192.37 91.7988C197.543 91.9125 198.926 91.1492 199.281 90.6944C199.897 89.9147 198.44 88.7124 197.095 87.8516C196.6 87.5369 159.999 64.7064 144.516 64.7061Z" fill="#0040B4" fill-opacity="0.5"/>
<path d="M151.685 72.3455C154.102 71.8275 159.474 73.3973 167.635 77.0232C173.676 79.7073 179.085 82.5953 179.159 82.6267C179.438 82.7994 180.311 83.349 179.884 83.867C179.642 84.1805 178.899 84.2908 177.895 84.2908C175.144 84.2908 170.479 83.3798 169.289 83.1443C163.099 81.8886 157.355 80.084 153.935 78.3103C150.496 76.5209 149.307 74.7778 150.385 73.1296C150.645 72.7375 151.091 72.471 151.685 72.3455ZM152.745 72.7058C152.392 72.7058 152.094 72.7368 151.815 72.7996C151.351 72.8938 151.054 73.0827 150.868 73.3494C149.957 74.7307 151.072 76.2531 154.214 77.8855C157.578 79.6435 163.266 81.4336 169.419 82.6736C175.739 83.945 179.122 83.9762 179.438 83.5837C179.475 83.5671 179.417 83.3784 178.824 83.0027C178.296 82.7159 159.305 72.7058 152.745 72.7058Z" fill="#0040B4" fill-opacity="0.5"/>
<path d="M79.6891 99.207C84.2455 96.2748 88.3373 95.0823 91.8336 95.6786C94.7162 96.1756 97.1894 97.8488 99.1979 100.665C101.169 103.415 102.118 106.596 101.988 109.876C101.858 113.139 100.649 116.27 98.5104 118.921L97.9333 119.633C90.8291 128.429 83.5019 137.524 67.5084 143.52C65.6488 144.216 64.1236 144.498 62.8776 144.498C60.3483 144.498 58.9722 143.338 58.1911 142.112C53.2257 134.276 64.4393 109.047 79.6891 99.207ZM90.0299 96.0429C87.0729 96.0429 83.725 97.2521 80.0241 99.6376C73.1245 104.094 66.3361 112.327 61.8727 121.653C57.6883 130.383 56.4428 138.336 58.6745 141.881C60.1809 144.249 63.0634 144.647 67.2848 143.057C83.1299 137.109 90.42 128.081 97.4684 119.334L98.0456 118.622C100.128 116.054 101.3 113.022 101.43 109.858C101.56 106.678 100.63 103.597 98.7331 100.946C96.8176 98.2627 94.456 96.6552 91.7409 96.1913C91.183 96.092 90.6064 96.0429 90.0299 96.0429Z" fill="#0040B4" fill-opacity="0.5"/>
<path d="M80.5898 108.145C83.3162 106.408 85.7567 105.7 87.873 106.055C89.6082 106.341 91.1151 107.337 92.3164 109.023C94.6995 112.363 94.5467 116.613 91.8965 119.868C87.6826 125.046 83.0868 128.992 73.3242 132.636C72.1424 133.074 71.1703 133.26 70.3887 133.26C68.8823 133.26 68.0616 132.602 67.623 131.91C66.3079 129.852 67.1092 125.501 69.7021 120.559C72.4097 115.432 76.4713 110.776 80.5898 108.145ZM86.7861 106.475C85.0511 106.475 83.1062 107.184 80.9326 108.567C76.9094 111.148 72.9048 115.718 70.2353 120.778C67.7375 125.484 66.9183 129.769 68.1387 131.675C68.9396 132.939 70.6177 133.108 73.1152 132.181C82.7632 128.588 87.2818 124.691 91.4385 119.581C93.9554 116.494 94.1079 112.463 91.8389 109.309C90.714 107.758 89.3607 106.83 87.7783 106.56C87.4542 106.51 87.1293 106.475 86.7861 106.475Z" fill="#0040B4" fill-opacity="0.5"/>
<path d="M253.709 133.203C248.925 130.706 244.16 130.177 240.315 131.715C234.593 133.98 231.967 140.328 234.218 146.478C234.8 148.065 234.443 149.338 233.168 150.33C229.135 153.438 216.097 153.703 197.376 151.041C181.206 148.743 163.779 144.593 154.981 140.923C147.684 137.881 141.793 137.385 137.46 139.419C133.615 141.221 131.082 145.089 130.125 150.578C128.7 158.795 109.097 166.631 93.3393 172.913C82.1591 177.377 73.3237 180.898 72.1419 183.791C71.9355 184.287 71.9543 184.75 72.1981 185.18C73.2486 187.098 75.8186 187.429 80.5646 186.255C84.9354 185.164 91.1258 182.833 98.9482 179.873C111.085 175.277 127.724 168.979 149.072 162.977C166.574 158.067 181.787 158.629 194.281 164.647C201.053 167.92 206.905 172.748 211.67 178.997C215.741 184.354 218.986 190.752 221.031 197.513C222.531 202.473 225.814 206.606 230.804 209.797C234.837 212.376 240.015 214.36 246.168 215.699C250.97 216.74 256.429 217.369 262 217.551V217.055C256.466 216.873 251.064 216.244 246.299 215.203C240.221 213.897 235.119 211.93 231.142 209.384C226.264 206.259 223.057 202.225 221.575 197.365C219.511 190.537 216.247 184.089 212.139 178.7C207.318 172.368 201.409 167.491 194.543 164.184C181.919 158.084 166.555 157.522 148.903 162.465C127.518 168.466 110.879 174.765 98.7231 179.377C83.2096 185.246 74.6555 188.487 72.7046 184.932C72.5358 184.618 72.517 184.287 72.6671 183.924C73.7739 181.229 82.947 177.559 93.5832 173.327C101.499 170.169 110.485 166.581 117.557 162.779C125.736 158.381 130.032 154.397 130.688 150.611C131.607 145.288 134.046 141.551 137.723 139.816C141.906 137.848 147.627 138.361 154.756 141.336C167.849 146.792 199.814 153.306 219.23 153.306C225.927 153.306 231.142 152.529 233.562 150.661C235.025 149.537 235.437 148.065 234.781 146.28C232.624 140.378 235.119 134.277 240.577 132.111C247.593 129.334 255.359 133.533 261.981 140.113V139.27C259.242 136.707 256.485 134.657 253.709 133.203Z" fill="#0040B4" fill-opacity="0.5"/>
<path d="M251.522 141.582C249.579 141.056 247.749 141.236 246.087 142.108C241.212 144.689 242.276 149.423 243.21 153.615C243.864 156.525 244.48 159.27 242.967 160.799C241.921 161.851 239.886 162.295 236.766 162.131C229.65 161.769 222.814 160.437 217.323 159.369C210.02 157.955 204.734 156.919 202.81 158.81C202.231 159.385 201.951 160.026 202.007 160.733C202.156 162.969 205.518 165.583 209.796 168.887C215.941 173.655 223.599 179.606 226.232 187.595C228.81 195.387 232.284 203.097 240.315 206.665C243.397 208.029 247.002 208.72 251.167 208.72C254.417 208.72 258.022 208.309 261.981 207.47V206.961C253.016 208.868 245.956 208.621 240.558 206.221C232.732 202.736 229.295 195.141 226.755 187.447C224.065 179.326 216.352 173.326 210.151 168.509C205.985 165.271 202.698 162.723 202.549 160.684C202.511 160.109 202.735 159.599 203.221 159.122C204.921 157.445 210.337 158.498 217.211 159.829C222.721 160.898 229.594 162.229 236.748 162.591C240.054 162.755 242.22 162.262 243.397 161.079C245.078 159.369 244.443 156.508 243.771 153.484C242.818 149.259 241.847 144.902 246.385 142.502C247.898 141.697 249.579 141.549 251.372 142.009C254.529 142.847 258.171 145.724 262 150.344V149.489C258.899 145.889 255.201 142.551 251.522 141.582Z" fill="#0040B4" fill-opacity="0.5"/>
<path d="M255.25 157.591C252.558 158.369 250.677 160.969 250.584 164.082C250.529 166.036 250.086 167.245 249.183 167.99C247.228 169.596 242.747 169.348 234.595 168.901L233.636 168.851C230.483 168.686 228.767 169.05 228.196 169.994C227.329 171.468 229.45 173.968 232.401 177.445C235.038 180.542 238.32 184.384 240.165 188.49C241.585 191.637 244.001 193.806 247.32 194.948C249.275 195.611 251.414 195.876 253.554 195.876C256.578 195.876 259.584 195.362 262 194.783V194.253C257.574 195.329 252.023 196.008 247.523 194.485C244.351 193.408 242.046 191.322 240.681 188.308C238.8 184.135 235.499 180.26 232.843 177.147C230.224 174.084 227.974 171.434 228.675 170.242C229.118 169.497 230.722 169.216 233.581 169.365L234.54 169.414C243.097 169.878 247.412 170.11 249.533 168.371C250.566 167.526 251.064 166.202 251.119 164.099C251.211 161.201 252.927 158.783 255.398 158.071C257.371 157.508 259.639 158.022 262 159.495V158.866C258.976 157.061 256.633 157.194 255.25 157.591Z" fill="#0040B4" fill-opacity="0.5"/>
<path d="M250.807 175.148C249.105 176.872 248.58 179.05 249.34 181.294C250.173 183.732 253.252 185.114 258.486 185.39C259.175 185.423 259.863 185.439 260.515 185.439C261.022 185.439 261.529 185.423 262 185.407V184.919C257.635 185.065 251.043 184.675 249.847 181.131C249.141 179.05 249.63 177.034 251.188 175.457C253.361 173.263 257.255 172.141 261.982 172.287V171.8C257.128 171.686 253.089 172.856 250.807 175.148Z" fill="#0040B4" fill-opacity="0.5"/>
<path d="M20.759 124.199C27.8926 126.772 34.7053 129.245 39.31 129.245C40.5556 129.245 41.6313 129.063 42.5182 128.664C43.7638 128.1 44.5564 127.087 44.8961 125.676C45.7076 122.356 41.6879 119.153 35.5923 114.306C29.5533 109.508 21.2874 102.951 13.984 93.1245C9.02073 86.468 4.35939 82.1853 0.0188718 80.2764V80.8242C4.18955 82.7331 8.69991 86.9162 13.4934 93.3901C20.8534 103.283 29.1381 109.857 35.196 114.671C41.1406 119.402 45.0848 122.522 44.3299 125.56C44.0091 126.838 43.3297 127.701 42.2351 128.199C38.3287 130.009 29.893 126.954 20.9666 123.718C15.0786 121.593 8.98299 119.385 3.69888 118.389C2.37785 118.14 1.13231 117.974 0 117.891V118.389C1.09457 118.472 2.30236 118.621 3.58565 118.87C8.83202 119.883 14.9087 122.074 20.759 124.199Z" fill="#0040B4" fill-opacity="0.5"/>
<path d="M17.2276 114.796C19.1018 114.796 20.2911 114.38 20.7777 113.564C21.9671 111.515 18.381 107.611 10.0915 101.914C6.34324 99.3538 2.4508 96.9855 0 95.5293V96.0894C8.19935 100.938 22.1833 110.107 20.3092 113.34C19.9127 114.028 18.8315 114.332 17.3178 114.332C13.3352 114.332 6.27115 112.315 0 110.171V110.683C1.35154 111.147 2.77517 111.611 4.21681 112.059C10.0555 113.884 14.4164 114.796 17.2276 114.796Z" fill="#0040B4" fill-opacity="0.5"/>
<path d="M101.083 149.74C104.593 146.042 109.913 144.112 115.252 144.562C118.392 144.836 119.981 145.801 120 147.457C120.036 152.94 100.879 164.389 92.2517 165.193C90.996 165.322 90.0356 165.37 89.3152 165.37C87.7639 165.37 87.2462 165.129 87.0613 164.775C86.6918 164.036 88.0222 162.974 90.2391 161.205C92.6037 159.324 95.8362 156.751 97.9236 153.68C98.9212 152.216 99.9744 150.898 101.083 149.74ZM113.737 144.997C109.082 144.997 104.611 146.83 101.526 150.046C100.436 151.171 99.4017 152.49 98.4226 153.921C96.2982 157.056 93.0099 159.662 90.6267 161.56C89.038 162.83 87.3748 164.148 87.5965 164.566C87.7259 164.824 88.632 165.049 92.2156 164.711C96.169 164.341 102.764 161.591 109.026 157.716C115.473 153.728 119.482 149.788 119.464 147.473C119.463 146.106 118.022 145.287 115.233 145.061C114.735 145.013 114.236 144.997 113.737 144.997Z" fill="#0040B4" fill-opacity="0.5"/>
<path d="M18.3087 65.8661C22.5251 72.6716 27.0413 79.6744 31.4452 84.7868C36.2987 90.3923 40.5152 93.1211 44.3568 93.1211C44.3943 93.1211 44.4318 93.1211 44.4692 93.1211C48.2921 93.0717 51.6653 90.3758 54.776 84.9183C61.3162 73.4607 69.0557 66.4579 77.17 64.699C82.7169 63.499 88.4138 64.6825 94.0919 68.2497C98.4582 70.9949 101.569 71.899 103.555 71.0278C106.498 69.7456 106.666 64.962 106.854 59.4387C107.06 53.3729 107.285 46.4852 111.426 43.329C113.356 41.866 115.942 41.3235 119.334 41.6523C128.217 42.54 136.668 41.3564 143.771 38.266C150.517 35.3235 155.745 30.8358 158.875 25.2796C161.855 20.0028 162.717 14.0521 161.405 8.10141C160.861 5.6192 159.943 3.18631 158.688 0.802734H158.05C162.435 8.92333 162.679 17.4713 158.388 25.0659C155.314 30.5234 150.18 34.929 143.546 37.8221C136.537 40.8797 128.179 42.0304 119.409 41.1591C115.905 40.8139 113.094 41.4057 111.07 42.9509C106.741 46.2386 106.516 53.2414 106.291 59.4058C106.123 64.551 105.954 69.4168 103.312 70.5675C101.513 71.3566 98.6081 70.4524 94.4104 67.8223C88.5824 64.173 82.7356 62.9565 77.02 64.1894C68.7371 65.9976 60.8664 73.0826 54.2701 84.6717C51.253 89.9484 48.0485 92.5457 44.4692 92.595C44.4318 92.595 44.3943 92.595 44.3568 92.595C36.205 92.595 27.2662 79.2635 18.7959 65.5867C13.605 57.2524 7.30847 51.4989 0 48.4414V48.9838C7.08359 52.0249 13.2302 57.6798 18.3087 65.8661Z" fill="#0040B4" fill-opacity="0.5"/>
<path d="M25.1884 44.955C28.4115 44.955 31.2433 44.5419 33.5721 43.6992C38.8818 41.7824 41.5273 37.8662 41.4342 32.0167C41.341 26.2828 43.0737 22.0196 46.7252 18.9957C55.7238 11.4938 75.0995 12.7827 95.6302 14.1707C98.6484 14.369 101.778 14.5838 104.852 14.7656C107.852 14.9473 110.609 15.0299 113.143 15.0299C124.712 15.0299 131.27 13.1958 132.705 9.54395C133.711 6.9662 132.034 3.84316 129.351 0.802734H128.625C131.382 3.82663 133.133 6.91663 132.183 9.39524C130.544 13.5923 121.378 15.2448 104.908 14.2864C101.834 14.1046 98.7043 13.8898 95.6861 13.6915C75.0436 12.3035 55.5375 10.9981 46.3526 18.6487C42.5893 21.7883 40.8007 26.1671 40.8939 32.0497C40.987 37.6679 38.4533 41.4519 33.3858 43.2695C26.8651 45.6159 16.2644 44.5419 4.26638 40.3283C2.83183 39.8325 1.41592 39.2872 0 38.7254V39.2707C1.34139 39.816 2.70142 40.3283 4.06144 40.7909C11.9235 43.5339 19.2267 44.955 25.1884 44.955Z" fill="#0040B4" fill-opacity="0.5"/>
<path d="M14.5462 28.867C21.2512 28.508 26.9318 25.4242 31.4577 19.6972L32.2027 18.7508C37.6971 11.8 40.4536 8.30829 44.5325 6.85613C48.6114 5.40397 54.1431 5.92609 65.1691 6.98666C66.5101 7.11719 67.9443 7.24772 69.4529 7.39457C82.5277 8.6183 91.9892 9.04253 98.3776 8.65094C104.543 8.27566 108.044 7.18246 109.385 5.20817C110.205 4.00075 110.167 2.53228 109.497 0.802734H108.919C109.59 2.46701 109.664 3.85391 108.901 4.96342C107.672 6.74191 104.226 7.80248 98.3404 8.16144C91.9706 8.55304 82.5463 8.14513 69.5088 6.90508C68.0001 6.75823 66.566 6.6277 65.225 6.49717C54.1058 5.42028 48.5369 4.88184 44.309 6.39927C40.0811 7.9167 37.2874 11.441 31.7371 18.4734L30.9921 19.4198C26.5593 25.0163 21.0277 28.0349 14.5089 28.3775C11.1564 28.557 6.29527 28.0512 0 25.4732V26.0116C5.53165 28.247 9.96441 28.8996 13.261 28.8996C13.7267 28.8996 14.1551 28.8833 14.5462 28.867Z" fill="#0040B4" fill-opacity="0.5"/>
<path d="M22.8757 18.0434C25.6246 16.9054 27.5085 14.969 28.4504 12.2852C29.8537 8.37844 30.1613 4.43772 29.9306 0.802734H29.3539C29.5846 4.38676 29.277 8.27653 27.8929 12.1323C26.9894 14.6802 25.2017 16.5147 22.6065 17.5848C16.4359 20.1327 6.84347 18.0434 0 15.9542V16.4977C4.59435 17.8905 10.3998 19.2664 15.6285 19.2664C18.2621 19.2664 20.7611 18.9097 22.8757 18.0434Z" fill="#0040B4" fill-opacity="0.5"/>
<path d="M137.84 12.9007C134.151 19.3104 117.813 18.4416 117.626 18.4252C108.479 18.4252 99.9834 17.8514 92.494 17.3268C81.3531 16.5564 71.7213 15.9006 64.6046 17.5236C60.8412 18.376 57.9163 19.835 55.6807 21.966C53.2587 24.2611 51.6193 27.3593 50.6505 31.4084C47.4275 44.949 38.988 46.5719 32.1879 47.8669C28.0893 48.6538 24.5495 49.3259 23.3758 52.5389C22.3139 55.4732 23.5435 61.3091 26.543 67.4073C29.7474 73.9481 34.1069 79.0135 38.2055 80.9479C39.5283 81.5708 40.851 81.8823 42.0992 81.8823C44.4839 81.8823 46.7382 80.7676 48.713 78.5873C51.7124 75.2759 54.153 71.6695 56.519 68.1778C60.9344 61.6534 64.735 56.0306 70.6408 54.7684C74.2737 53.9979 78.5027 54.9487 83.5329 57.7191C90.2025 61.3747 94.8228 62.5222 97.6732 61.2272C101.213 59.6207 101.567 54.6536 101.94 49.3751C102.443 42.2933 102.964 34.9657 111.236 35.2935C113.136 35.3591 114.962 35.4083 116.732 35.4083C134.617 35.4083 146.224 31.6871 151.235 24.3102C155.185 18.5235 154.179 11.5401 152.651 6.72059C151.924 4.40919 151.012 2.37646 150.211 0.802734H149.596C150.415 2.37646 151.366 4.49115 152.111 6.86813C154.812 15.4416 152.856 20.9497 150.751 24.0643C145.348 31.9985 132.046 35.6214 111.255 34.8181C107.286 34.6706 104.641 36.146 103.169 39.3426C101.884 42.113 101.623 45.8014 101.381 49.3751C101.027 54.5061 100.673 59.342 97.4124 60.8174C94.7483 62.0304 90.3143 60.8829 83.8123 57.3257C78.6331 54.4897 74.2737 53.5061 70.4917 54.3257C64.3624 55.6372 60.4873 61.3419 56.016 67.9647C53.6686 71.44 51.228 75.0301 48.2472 78.3086C45.3409 81.5053 42.0433 82.243 38.4291 80.5381C34.4422 78.6529 30.1573 73.6858 27.0087 67.2434C24.1211 61.3419 22.8542 55.506 23.8602 52.7192C24.9408 49.7685 28.1638 49.1456 32.2625 48.3751C35.6904 47.7194 39.5655 46.9817 43.0307 44.6539C47.0362 41.9655 49.7004 37.6705 51.1535 31.5231C52.9607 23.9004 57.1338 19.7366 64.6977 18.0153C67.8648 17.2941 71.5723 17.0318 75.6895 17.0318C80.6825 17.0318 86.3274 17.4252 92.4009 17.835C99.9089 18.3432 108.404 18.9333 117.552 18.9333C117.552 18.9333 117.552 18.9333 117.57 18.9333C117.608 18.9333 121.818 19.1792 126.42 18.5891C132.679 17.8022 136.666 15.9662 138.306 13.1466C140.076 10.0811 138.939 5.95012 134.915 0.819127H134.244C138.343 5.88455 139.535 9.95001 137.84 12.9007Z" fill="#0040B4" fill-opacity="0.5"/>
<path d="M139.048 18.3637C135.989 21.7798 126.738 23.1962 112.321 22.463C101.372 21.9131 91.2262 20.2967 91.1329 20.28C91.0769 20.2634 84.8848 19.2802 77.9093 20.4967C73.7874 21.1966 70.2063 22.513 67.2408 24.4127C63.5292 26.779 60.7875 30.0451 59.1089 34.1111C55.8636 41.9932 52.2267 47.3756 47.9742 50.5751C44.2813 53.358 40.6816 54.0912 37.3244 54.6078C32.4192 55.3577 30.7592 58.1572 30.237 60.3735C29.1925 64.7062 31.7104 70.5552 35.6272 72.9048C36.6903 73.5381 37.772 73.8547 38.8165 73.8547C39.7864 73.8547 40.7376 73.5881 41.6328 73.0381C45.3071 70.8052 49.0746 66.5059 53.066 61.9733C60.657 53.3247 68.5091 44.3928 76.3985 48.8754C77.5549 49.5253 78.6739 50.1752 79.7371 50.8084C85.5189 54.1912 90.1071 56.8741 92.998 55.6076C94.7139 54.8578 95.6838 52.8747 96.0381 49.342C96.7655 42.0432 98.1084 36.5441 102.305 33.4446C105.289 31.2283 109.542 30.4117 115.323 30.9116C131.513 32.3281 142.181 29.7618 147.049 23.3129C150.947 18.1471 150.276 11.4315 149.026 6.69891C148.317 4.01602 147.347 1.64973 146.583 0H145.986C146.751 1.63307 147.758 4.04934 148.485 6.81556C149.697 11.4481 150.35 18.0137 146.583 23.0296C141.845 29.3119 131.345 31.7948 115.379 30.4117C109.448 29.8951 105.065 30.7617 101.951 33.0613C97.6235 36.2774 96.2247 41.8765 95.4786 49.3087C95.1429 52.6081 94.2663 54.5245 92.7555 55.1744C90.1444 56.3075 85.6868 53.7079 80.0541 50.4085C78.9724 49.7753 77.8533 49.1254 76.6969 48.4755C72.9481 46.3425 68.9008 46.8757 64.3312 50.1085C60.3399 52.9081 56.4232 57.374 52.637 61.69C48.6829 66.2059 44.9341 70.4552 41.3344 72.6549C39.2268 73.938 37.2498 73.2881 35.9442 72.5049C32.1954 70.2553 29.7894 64.6395 30.7779 60.4902C31.2815 58.4238 32.8295 55.8076 37.4177 55.1077C40.8495 54.5745 44.5237 53.8246 48.3286 50.9584C52.6556 47.6923 56.3486 42.2431 59.6312 34.2778C61.2725 30.2951 63.9396 27.1123 67.5392 24.8126C70.4302 22.9629 73.9552 21.6798 77.9839 20.9799C80.595 20.53 83.0943 20.38 85.2018 20.38C88.6336 20.38 90.9837 20.7633 91.021 20.7633C91.1142 20.78 101.298 22.3964 112.283 22.9463C127.092 23.6962 136.25 22.2631 139.477 18.6636C142.666 15.1309 143.412 10.3483 141.621 4.84921C141.006 2.96619 140.204 1.29979 139.495 0.016664H138.861C139.589 1.28313 140.446 3.01618 141.081 4.98252C142.293 8.69859 142.908 14.0477 139.048 18.3637Z" fill="#0040B4" fill-opacity="0.5"/>
<path d="M78.9295 25.6874C80.9272 24.8313 83.1492 24.6509 85.2029 25.1942C87.2193 25.7211 88.7321 26.8242 89.6844 28.4706C92.5967 33.4265 90.0197 42.1362 88.2273 46.8778C87.7606 48.1288 87.1821 48.7871 86.4168 48.9354C86.3049 48.9519 86.1927 48.9686 86.0808 48.9686C84.8299 48.9686 83.3918 47.6681 81.5994 46.0546C79.9003 44.5234 77.9771 42.7944 75.6619 41.5761C71.7969 39.5345 69.8926 37.2457 70.0047 34.7431C70.2103 30.3801 76.689 26.6588 78.9295 25.6874ZM82.7947 25.3915C81.5624 25.3915 80.3293 25.6378 79.1717 26.1317C77.0055 27.0704 70.7509 30.6437 70.5642 34.7597C70.4524 37.0646 72.2827 39.2211 75.9607 41.1474C78.332 42.3822 80.3675 44.2261 82.0105 45.7079C83.7656 47.2885 85.2776 48.6554 86.3045 48.4579C86.8459 48.3427 87.3128 47.7829 87.7049 46.7294C91.8312 35.8299 90.4118 30.7583 89.1795 28.7167C88.2832 27.2022 86.8832 26.1813 85.0349 25.6874C84.3069 25.4898 83.5601 25.3915 82.7947 25.3915Z" fill="#0040B4" fill-opacity="0.5"/>
<path d="M80.5004 33.1893C81.0757 32.8991 81.7173 32.8315 82.309 33.0193C82.8841 33.2072 83.3277 33.5826 83.6235 34.1629C84.4454 35.802 83.7387 38.6193 83.2455 40.1561C83.1634 40.4463 82.9988 40.8392 82.6372 40.9246C82.5879 40.9416 82.5546 40.9412 82.5053 40.9412C82.0945 40.9409 81.7001 40.5142 81.1743 39.951C80.7305 39.473 80.2208 38.9272 79.6127 38.5516C78.5114 37.8686 77.9685 37.0825 78.0014 36.2117C78.0673 34.4702 80.484 33.2063 80.5004 33.1893ZM81.6186 33.4285C81.3064 33.4285 81.0101 33.4966 80.7143 33.6502C80.2705 33.8892 78.5439 34.9995 78.4946 36.2459C78.4618 36.8947 78.923 37.5268 79.8598 38.1072C80.5171 38.517 81.0763 39.1146 81.52 39.5926C81.8813 39.968 82.3409 40.4625 82.5219 40.4119C82.5712 40.4119 82.6704 40.2754 82.769 39.9852C83.1471 38.807 83.9354 35.9042 83.1957 34.3846C82.9656 33.9408 82.6374 33.6501 82.1772 33.5135C81.9965 33.4623 81.7993 33.4286 81.6186 33.4285Z" fill="#0040B4" fill-opacity="0.5"/>
<path d="M228.978 29.8493C221.863 32.0196 216.927 38.3511 214.339 48.6642C213.147 53.4291 210.167 56.4317 205.492 57.5903C196.738 59.777 182.732 54.7509 172.954 45.8901C165.113 38.808 161.965 31.0242 164.312 24.5458C166.491 18.5407 167.106 12.0134 166.156 5.17603C165.951 3.74002 165.671 2.27138 165.336 0.802734H164.759C165.113 2.30402 165.392 3.77266 165.597 5.2413C166.547 12.0134 165.932 18.4754 163.79 24.4153C161.369 31.0731 164.573 39.0201 172.563 46.2491C177.219 50.4592 183.067 54.0003 189.046 56.2196C193.292 57.8024 197.39 58.602 201.003 58.602C202.679 58.602 204.244 58.4225 205.659 58.0799C210.465 56.8886 213.668 53.6739 214.897 48.7784C217.449 38.6448 222.236 32.4439 229.164 30.3225C239.035 27.3036 251.682 32.9824 262 39.5586V38.9548C251.607 32.3786 238.961 26.8141 228.978 29.8493Z" fill="#0040B4" fill-opacity="0.5"/>
<path d="M232.104 17.007C226.046 18.0741 221.433 21.6039 218.413 27.4651C214.231 35.5754 208.923 41.2559 202.621 44.3753C195.869 47.7081 189.868 47.1499 186.023 46.0991C181.372 44.8186 177.358 42.126 174.713 38.5142C171.975 34.7873 170.962 30.3874 171.881 26.1352C173.776 17.3025 174.488 8.78173 174.038 0.802734H173.476C173.926 8.74889 173.213 17.2368 171.337 26.0367C170.4 30.4202 171.431 34.9351 174.245 38.7604C176.964 42.4708 181.09 45.229 185.873 46.5424C187.88 47.1006 189.943 47.3633 192.006 47.3633C195.7 47.3633 199.433 46.4932 202.902 44.7857C209.317 41.6171 214.699 35.8545 218.938 27.6457C221.883 21.9323 226.346 18.5174 232.217 17.4667C236.981 16.6294 242.701 17.3846 248.759 19.6831C253.504 21.4726 258.305 24.1651 262 27.1039V26.4472C254.367 20.5696 242.063 15.2503 232.104 17.007Z" fill="#0040B4" fill-opacity="0.5"/>
<path d="M139.791 226.142C139.315 225.699 138.711 225.522 138.016 225.593C135.655 225.841 132.434 229.115 130 232H130.714C133.038 229.275 136.003 226.354 138.071 226.124C138.601 226.071 139.041 226.195 139.407 226.531C140.669 227.682 142.078 229.788 143.359 232H144C142.664 229.664 141.163 227.381 139.791 226.142Z" fill="#0040B4" fill-opacity="0.5"/>
<path d="M256.459 16.6078C250.097 16.0737 242.411 13.8707 235.359 10.5328C227.187 6.66077 220.359 12.4354 212.467 19.1112C206.46 24.2015 199.65 29.9594 191.218 32.0456C188.251 32.7799 185.957 32.3961 184.371 30.9441C178.979 25.9539 182.598 9.61483 185.061 0.802734H184.483C183.737 3.48975 182.878 6.84436 182.207 10.3492C180.136 21.2475 180.733 28.2905 183.979 31.2946C185.154 32.3794 186.666 32.9135 188.494 32.9135C189.389 32.9135 190.341 32.7799 191.386 32.5296C199.93 30.4267 206.814 24.6187 212.859 19.4784C220.602 12.9361 227.28 7.27829 235.098 10.9834C242.299 14.4047 249.873 16.5744 256.403 17.1084C258.437 17.2753 260.302 17.2753 262 17.1084V16.6078C260.34 16.7747 258.474 16.7747 256.459 16.6078Z" fill="#0040B4" fill-opacity="0.5"/>
<path d="M192.969 22.4282C193.27 22.4611 193.553 22.4775 193.854 22.4775C198.868 22.4775 204.466 17.6864 207.463 14.7002C211.441 10.7623 215.305 5.64304 218 0.802734H217.378C214.72 5.52819 210.932 10.5162 207.049 14.372C201.696 19.6881 196.72 22.379 193.044 21.936C191.517 21.7555 190.518 21.1484 189.99 20.1147C188.011 16.1769 193.364 7.0213 197.568 0.819142H196.908C196.079 2.06614 195.193 3.41158 194.345 4.80624C189.727 12.3703 188.087 17.5879 189.482 20.3116C190.085 21.5094 191.253 22.2149 192.969 22.4282Z" fill="#0040B4" fill-opacity="0.5"/>
<path d="M199.709 12.0245C199.825 12.0415 199.961 12.0415 200.097 12.0415C201.261 12.0415 203.104 11.4285 205.665 8.85718C207.566 6.96702 209.39 4.39573 210.457 2.14798C210.631 1.77335 210.825 1.31359 211 0.819763H210.399C210.263 1.17736 210.108 1.55198 209.933 1.94364C207.741 6.57537 202.735 11.8712 199.806 11.4966C199.263 11.4285 198.913 11.2241 198.719 10.8495C197.73 8.8742 201.746 3.03346 203.473 0.802734H202.774C201.533 2.45449 197.012 8.66986 198.196 11.0538C198.448 11.6158 198.972 11.9393 199.709 12.0245Z" fill="#0040B4" fill-opacity="0.5"/>
<path d="M252.8 11.4041C249.152 10.9847 245.065 9.57567 240.63 7.2105C236.763 5.14727 233.299 2.69823 230.843 0.802734H230C232.511 2.76532 236.195 5.43243 240.355 7.64663C244.864 10.0454 249.024 11.4879 252.745 11.9073C253.514 11.9912 254.266 12.0415 255.017 12.0415C257.601 12.0415 259.929 11.5047 262 10.4312V9.84406C259.342 11.2699 256.282 11.8067 252.8 11.4041Z" fill="#0040B4" fill-opacity="0.5"/>
<path d="M141.4 148.344C144.981 146.476 151.187 146.425 159.849 148.21C166.053 149.494 171.339 151.294 171.773 151.445C177.342 152.362 178.036 153.18 177.999 153.78C177.961 154.597 176.461 155.715 165.137 157.216C158.106 158.15 149.724 158.916 143.612 159.467L142.094 159.6C140.987 159.7 139.993 159.751 139.094 159.751C135.663 159.751 133.657 159.017 133.132 157.583C132.175 154.998 136.582 150.862 141.4 148.344ZM148.974 147.427C146.181 147.427 143.594 147.81 141.7 148.794C139.319 150.045 137.088 151.663 135.569 153.247C133.976 154.931 133.301 156.415 133.676 157.449C134.257 158.983 137.144 159.567 142.037 159.117L143.556 158.984C149.669 158.417 158.031 157.666 165.043 156.732C176.161 155.248 177.398 154.164 177.417 153.764C177.416 153.563 177.021 152.83 171.642 151.946L171.587 151.93C171.53 151.913 166.112 150.028 159.737 148.711C156.456 148.027 152.537 147.427 148.974 147.427Z" fill="#0040B4" fill-opacity="0.5"/>
<path d="M152.284 39.1661C155.121 38.0695 158.503 38.4138 160.855 40.0587C162.72 41.3589 164.741 43.208 163.731 44.7432C162.953 45.9336 160.485 46.5596 157.201 46.5596C155.006 46.5596 152.44 46.2779 149.759 45.6983C147.33 45.1814 146.105 44.476 146.008 43.5674C145.853 42.3144 147.971 40.842 152.284 39.1661ZM155.725 39.0098C154.637 39.0098 153.548 39.1973 152.537 39.5889C148.592 41.1241 146.474 42.519 146.591 43.5215C146.669 44.1951 147.816 44.79 149.914 45.2442C156.113 46.5914 162.078 46.2623 163.225 44.5235C163.866 43.521 162.934 42.1117 160.485 40.42C159.125 39.4958 157.435 39.0099 155.725 39.0098Z" fill="#0040B4" fill-opacity="0.5"/>
<path d="M205.295 226.111C195.489 225.028 189.729 217.775 182.464 208.587C180.431 206.027 178.323 203.369 175.951 200.612C170.003 193.705 163.34 189.553 156.169 188.274C148.019 186.83 139.059 189.061 129.554 194.902C119.108 201.318 103.994 211.639 91.025 221.221C87.3923 223.912 82.6491 227.489 78 231.197H78.8282C82.5173 228.276 86.7147 225.061 91.3826 221.598C104.332 212.032 119.428 201.712 129.855 195.313C147.567 184.434 162.926 186.321 175.481 200.924C177.833 203.664 179.941 206.322 181.974 208.882C189.334 218.169 195.15 225.487 205.201 226.603C212.335 227.39 216.419 228.933 217.398 231.197H218C217.078 228.654 212.805 226.947 205.295 226.111Z" fill="#0040B4" fill-opacity="0.5"/>
<path d="M151.432 207.247C147.95 205.852 144.376 206.02 140.803 207.735C131.942 211.972 123.911 216.984 116.929 222.651C112.637 226.131 109.395 229.326 107 232H107.737C113.189 225.997 123.726 216.462 141.042 208.172C144.468 206.541 147.876 206.373 151.192 207.701C157.879 210.375 163.111 218.615 166.316 225.072C167.55 227.527 168.582 229.932 169.411 232H170C169.153 229.881 168.103 227.409 166.832 224.87C162.116 215.369 156.921 209.433 151.432 207.247Z" fill="#0040B4" fill-opacity="0.5"/>
<path d="M64.7584 169.405C67.6789 167.965 71.6719 168.627 73.2418 169.753C73.9174 170.233 74.1564 170.797 73.8981 171.327C73.3813 172.453 71.3937 173.612 68.0162 174.755C67.5196 174.921 67.0229 175.003 66.566 175.003C65.096 175.003 63.9438 174.209 63.3873 173.281C62.6919 172.089 62.8112 170.366 64.7584 169.405ZM68.5924 169.091C67.3805 169.091 66.1285 169.306 65.0358 169.836C63.4066 170.631 63.288 172.022 63.9039 173.049C64.5199 174.076 65.9898 174.904 67.778 174.291C70.957 173.215 72.8844 172.122 73.3414 171.145C73.5401 170.731 73.1824 170.35 72.8248 170.135C71.9903 169.539 70.3409 169.091 68.5924 169.091Z" fill="#0040B4" fill-opacity="0.5"/>
<path d="M78.9485 214.427C82.7204 212.525 91.7922 212.219 93.6028 213.54C93.98 213.798 94.0928 214.137 93.9231 214.491C93.1866 216.087 85.2097 219.567 82.5696 220.485C82.0039 220.679 81.4566 220.776 80.9475 220.76C79.3258 220.76 78.062 219.873 77.4397 218.81C76.6477 217.456 76.799 215.506 78.9485 214.427ZM93.2258 213.911C91.6039 212.735 82.683 213.105 79.2317 214.846C77.3838 215.78 77.2518 217.407 77.9495 218.6C78.6473 219.792 80.3072 220.759 82.344 220.034C85.6822 218.858 92.7914 215.57 93.3762 214.313C93.4328 214.201 93.4517 214.072 93.2258 213.911Z" fill="#0040B4" fill-opacity="0.5"/>
<path d="M15.8829 11.5115C19.0439 9.78127 18.0097 4.2788 16.9561 0.802734H16.3512C16.6244 1.67565 16.878 2.68885 17.0927 3.74882C17.6 6.44549 17.7561 9.92156 15.5707 11.1374C12.9951 12.5403 7.76584 10.7009 0 5.66611V6.25844C5.99023 10.1086 10.5366 12.0415 13.5805 12.0415C14.478 12.0415 15.239 11.8544 15.8829 11.5115Z" fill="#0040B4" fill-opacity="0.5"/>
<path d="M118.787 114.513C121.141 113.655 124.848 113.857 129.797 115.136C133.448 116.087 136.47 117.288 136.507 117.304C138.064 117.959 138.119 118.583 137.915 118.988C137.303 120.158 133.448 120.844 130.057 121.094C129 121.172 127.814 121.218 126.591 121.218C123.866 121.218 120.956 120.984 118.88 120.313C115.915 119.378 115.748 117.943 116.174 116.914C116.6 115.807 117.472 114.996 118.787 114.513ZM122.236 114.48C121.031 114.48 119.918 114.605 118.991 114.948C117.824 115.369 117.046 116.087 116.675 117.069C116.212 118.27 117.008 119.221 119.084 119.892C121.531 120.671 125.72 120.952 130.001 120.641C133.949 120.344 136.989 119.595 137.397 118.815C137.6 118.41 136.877 118.005 136.247 117.74C136.062 117.662 128.018 114.481 122.236 114.48Z" fill="#0040B4" fill-opacity="0.5"/>
</g>
</svg>
