<svg width="250" height="202" viewBox="0 0 250 202" fill="none" xmlns="http://www.w3.org/2000/svg">
<rect width="250" height="201.026" fill="white"/>
<path d="M136 64.3281C139.866 64.3281 143 67.4784 143 71.3643C143 75.25 139.866 78.4004 136 78.4004H200C203.866 78.4004 207 81.5499 207 85.4355C207 89.3214 203.866 92.4717 200 92.4717H222C225.866 92.4717 229 95.622 229 99.5078C229 103.394 225.866 106.544 222 106.544H203C199.134 106.544 196 109.693 196 113.579C196 117.465 199.134 120.615 203 120.615H209C212.866 120.615 216 123.766 216 127.651C216 131.537 212.866 134.688 209 134.688H157C156.485 134.688 155.983 134.631 155.5 134.525C155.017 134.631 154.515 134.688 154 134.688H63C59.1341 134.688 56.0001 131.537 56 127.651C56 123.766 59.134 120.615 63 120.615H24C20.134 120.615 17 117.465 17 113.579C17.0002 109.693 20.1341 106.544 24 106.544H64C67.8659 106.544 70.9999 103.394 71 99.5078C71 95.622 67.866 92.4717 64 92.4717H39C35.134 92.4717 32 89.3214 32 85.4355C32.0001 81.5499 35.1341 78.4004 39 78.4004H79C75.1341 78.4004 72.0001 75.25 72 71.3643C72 67.4784 75.134 64.3281 79 64.3281H136ZM226 120.615C229.866 120.615 233 123.766 233 127.651C233 131.537 229.866 134.688 226 134.688C222.134 134.688 219 131.537 219 127.651C219 123.766 222.134 120.615 226 120.615Z" fill="#F5F8FF"/>
<path d="M172.5 45.2307V51.2615" stroke="#BDD2FA" stroke-width="2.5" stroke-linecap="round" stroke-linejoin="round"/>
<path d="M172.5 59.3025V65.3333" stroke="#BDD2FA" stroke-width="2.5" stroke-linecap="round" stroke-linejoin="round"/>
<path d="M162.5 55.2821H168.5" stroke="#BDD2FA" stroke-width="2.5" stroke-linecap="round" stroke-linejoin="round"/>
<path d="M176.5 55.2821H182.5" stroke="#BDD2FA" stroke-width="2.5" stroke-linecap="round" stroke-linejoin="round"/>
<path d="M89.5 148.759V152.78" stroke="#BDD2FA" stroke-width="2.5" stroke-linecap="round" stroke-linejoin="round"/>
<path d="M89.5 160.821V164.841" stroke="#BDD2FA" stroke-width="2.5" stroke-linecap="round" stroke-linejoin="round"/>
<path d="M81.5 156.8H85.5" stroke="#BDD2FA" stroke-width="2.5" stroke-linecap="round" stroke-linejoin="round"/>
<path d="M93.5 156.8H97.5" stroke="#BDD2FA" stroke-width="2.5" stroke-linecap="round" stroke-linejoin="round"/>
<path fill-rule="evenodd" clip-rule="evenodd" d="M160.711 131.799C162.102 130.087 163.352 128.297 164.461 126.444C166.901 122.369 168.66 117.99 169.734 113.476C170.821 108.911 171.209 104.207 170.894 99.5374C170.62 95.4625 169.811 91.4138 168.465 87.5062C167.131 83.6294 165.268 79.8915 162.875 76.4048C161.45 74.3271 159.836 72.3386 158.034 70.463C155.388 67.7094 152.486 65.3553 149.402 63.4021C146.089 61.3035 142.566 59.6678 138.926 58.4968C134.368 57.0302 129.628 56.2925 124.886 56.2871C121.197 56.283 117.507 56.7221 113.902 57.6063C109.845 58.6017 105.895 60.1612 102.177 62.287C98.9076 64.1557 95.817 66.462 92.988 69.2077C89.4328 72.6581 86.553 76.5476 84.3512 80.7103C82.1956 84.7857 80.6899 89.1228 79.8366 93.566C78.9574 98.1436 78.7706 102.834 79.2789 107.466C79.9378 113.47 81.7643 119.377 84.7644 124.815C86.684 128.295 89.0842 131.584 91.9663 134.583C96.5416 139.345 101.883 142.912 107.604 145.277C114.562 148.153 122.081 149.251 129.465 148.558C135.662 147.976 141.765 146.133 147.361 143.02" fill="white"/>
<path d="M160.711 131.799C162.102 130.087 163.352 128.297 164.461 126.444C166.901 122.369 168.66 117.99 169.734 113.476C170.821 108.911 171.209 104.207 170.894 99.5374C170.62 95.4625 169.811 91.4138 168.465 87.5062C167.131 83.6294 165.268 79.8915 162.875 76.4048C161.45 74.3271 159.836 72.3386 158.034 70.463C155.388 67.7094 152.486 65.3553 149.402 63.4021C146.089 61.3035 142.566 59.6678 138.926 58.4968C134.368 57.0302 129.628 56.2925 124.886 56.2871C121.197 56.283 117.507 56.7221 113.902 57.6063C109.845 58.6017 105.895 60.1612 102.177 62.287C98.9076 64.1557 95.817 66.462 92.988 69.2077C89.4328 72.6581 86.553 76.5476 84.3512 80.7103C82.1956 84.7857 80.6899 89.1228 79.8366 93.566C78.9574 98.1436 78.7706 102.834 79.2789 107.466C79.9378 113.47 81.7643 119.377 84.7644 124.815C86.684 128.295 89.0842 131.584 91.9663 134.583C96.5416 139.345 101.883 142.912 107.604 145.277C114.562 148.153 122.081 149.251 129.465 148.558C135.662 147.976 141.765 146.133 147.361 143.02" stroke="#4268B0" stroke-width="2.5" stroke-linecap="round" stroke-linejoin="round"/>
<path fill-rule="evenodd" clip-rule="evenodd" d="M150.701 141.098C153.607 139.218 156.191 136.873 157.872 134.98L150.701 141.098Z" fill="white"/>
<path d="M150.701 141.098C153.607 139.218 156.191 136.873 157.872 134.98" stroke="#789FE8" stroke-width="2.5" stroke-linecap="round"/>
<path d="M167 105.153C166.714 105.159 166.427 105.161 166.14 105.161C140.886 105.161 120.209 85.3717 118.476 60.3076C98.3752 63.4945 83 81.0661 83 102.265C83 125.722 101.825 144.738 125.048 144.738C147.309 144.738 165.53 127.264 167 105.153Z" fill="#FBFBFB"/>
<path fill-rule="evenodd" clip-rule="evenodd" d="M109.023 100.888C107.8 99.7521 105.903 99.8393 104.785 101.082C103.668 102.325 103.753 104.253 104.977 105.389L119.096 118.493C120.808 120.083 123.465 119.961 125.029 118.221C125.095 118.147 125.095 118.147 125.158 118.071L145.307 93.4483C146.366 92.1538 146.192 90.2319 144.918 89.1556C143.644 88.0793 141.752 88.2562 140.693 89.5506L121.75 112.7L109.023 100.888Z" fill="white" stroke="#0040B4" stroke-width="2.5" stroke-linecap="round"/>
<path fill-rule="evenodd" clip-rule="evenodd" d="M110.824 64.7441C108.874 65.4796 106.969 66.3733 105.128 67.4256C102.269 69.0607 99.5649 71.0788 97.0899 73.4811C96.0754 74.4659 95.1237 75.4915 94.2349 76.553M91.4852 80.2483C90.7785 81.3216 90.1281 82.4219 89.5341 83.5449C89.0954 84.3743 88.6875 85.2161 88.3103 86.0686" fill="white"/>
<path d="M111.262 65.9174C111.906 65.6742 112.233 64.9518 111.991 64.3038C111.749 63.6558 111.031 63.3276 110.386 63.5708L111.262 65.9174ZM105.128 67.4256L105.745 68.5148L105.128 67.4256ZM97.0899 73.4811L96.2239 72.5797L97.0899 73.4811ZM93.281 75.7461C92.8376 76.2757 92.9052 77.0663 93.432 77.5119C93.9589 77.9575 94.7454 77.8894 95.1888 77.3598L93.281 75.7461ZM92.5249 80.9398C92.905 80.3626 92.7476 79.585 92.1734 79.2031C91.5992 78.8212 90.8256 78.9796 90.4455 79.5568L92.5249 80.9398ZM89.5341 83.5449L90.635 84.133L89.5341 83.5449ZM87.1711 85.5596C86.8913 86.192 87.1745 86.9326 87.8036 87.2138C88.4328 87.4949 89.1697 87.2101 89.4495 86.5777L87.1711 85.5596ZM110.386 63.5708C108.375 64.3293 106.41 65.251 104.512 66.3363L105.745 68.5148C107.527 67.4956 109.373 66.6299 111.262 65.9174L110.386 63.5708ZM104.512 66.3363C101.562 68.0229 98.7746 70.1039 96.2239 72.5797L97.9559 74.3825C100.355 72.0536 102.975 70.0985 105.745 68.5148L104.512 66.3363ZM96.2239 72.5797C95.1784 73.5945 94.1974 74.6517 93.281 75.7461L95.1888 77.3598C96.05 76.3313 96.9723 75.3372 97.9559 74.3825L96.2239 72.5797ZM90.4455 79.5568C89.7167 80.6637 89.0459 81.7985 88.4332 82.9568L90.635 84.133C91.2103 83.0453 91.8403 81.9795 92.5249 80.9398L90.4455 79.5568ZM88.4332 82.9568C87.9808 83.8122 87.56 84.6804 87.1711 85.5596L89.4495 86.5777C89.8149 85.7519 90.21 84.9364 90.635 84.133L88.4332 82.9568Z" fill="#789FE8"/>
</svg>
