<svg width="113" height="48" viewBox="0 0 113 48" fill="none" xmlns="http://www.w3.org/2000/svg">
<path d="M2.46885 47.6965C1.49108 47.291 0.708983 46.5089 0.303522 45.5312L0.765385 45.3396C0.594542 44.9276 0.5 44.4755 0.5 44V42H0V38H0.5V34H0V30H0.5V26H0V22H0.5V18H0V14H0.5V10H0V6H0.5V4C0.5 3.52451 0.594542 3.07236 0.765385 2.66038L0.303522 2.46885C0.708983 1.49109 1.49109 0.708983 2.46885 0.303522L2.66038 0.765385C3.07236 0.594542 3.52451 0.5 4 0.5H6.03942V0H10.1183V0.5H14.1971V0H18.276V0.5H22.3548V0H26.4337V0.5H30.5126V0H34.5914V0.5H38.6703V0H42.7491V0.5H46.828V0H50.9068V0.5H54.9857V0H59.0645V0.5H63.1434V0H67.2222V0.5H71.3011V0H75.3799V0.5H79.4588V0H83.5377V0.5H85.5771C86.4138 0.5 87.2229 0.799771 87.8576 1.34498L89.3174 2.59889L89.6432 2.2196L92.5628 4.72742L92.237 5.10671L95.1566 7.61452L95.4824 7.23523L98.402 9.74305L98.0762 10.1223L100.996 12.6301L101.322 12.2509L104.241 14.7587L103.915 15.138L106.835 17.6458L107.161 17.2665L110.08 19.7743L109.755 20.1536L111.214 21.4075C111.608 21.7456 111.906 22.1484 112.108 22.5843L112.562 22.3736C113.046 23.4149 113.058 24.6253 112.596 25.6763L112.138 25.475C111.944 25.915 111.655 26.3238 111.269 26.67L109.877 27.9161L110.211 28.2886L107.427 30.7807L107.094 30.4082L104.311 32.9004L104.644 33.2729L101.861 35.7651L101.527 35.3926L98.7441 37.8848L99.0777 38.2573L96.2944 40.7495L95.9609 40.377L93.1777 42.8692L93.5112 43.2417L90.728 45.7338L90.3944 45.3614L89.0028 46.6074C88.361 47.1822 87.5296 47.5 86.668 47.5H84.6013V48H80.4679V47.5H76.3345V48H72.2011V47.5H68.0677V48H63.9343V47.5H59.8009V48H55.6675V47.5H51.5341V48H47.4007V47.5H43.2673V48H39.1339V47.5H35.0005V48H30.8671V47.5H26.7337V48H22.6003V47.5H18.4669V48H14.3335V47.5H10.2001V48H6.0667V47.5H4C3.5245 47.5 3.07236 47.4055 2.66037 47.2346L2.46885 47.6965Z" stroke="#BDD2FA" stroke-dasharray="4 4"/>
</svg>
